<svg width="352" height="353" viewBox="0 0 352 353" fill="none" xmlns="http://www.w3.org/2000/svg">
<path d="M64.4899 107.47C72.8819 107.47 79.685 100.667 79.685 92.275C79.685 83.883 72.8819 77.08 64.4899 77.08C56.098 77.08 49.2949 83.883 49.2949 92.275C49.2949 100.667 56.098 107.47 64.4899 107.47Z" fill="white"/>
<path d="M64.468 107.902C61.7924 107.902 59.1496 107.207 56.7608 105.846C53.1363 103.781 50.5319 100.428 49.4289 96.4045C48.326 92.3815 48.8553 88.168 50.9207 84.5434C52.9861 80.9188 56.3393 78.3145 60.3623 77.2115C64.3853 76.1086 68.5988 76.6379 72.2234 78.7033C75.8479 80.7687 78.4523 84.1219 79.5553 88.1449C80.6582 92.1679 80.1289 96.3814 78.0635 100.006C75.9981 103.631 72.6449 106.235 68.6219 107.338C67.2495 107.713 65.8539 107.9 64.468 107.9V107.902ZM64.5162 77.4983C63.2053 77.4983 61.8868 77.6735 60.5875 78.0296C56.782 79.0729 53.6117 81.5348 51.658 84.963C49.7042 88.3912 49.2037 92.3757 50.247 96.1793C51.2903 99.9848 53.7522 103.155 57.1804 105.109C60.6086 107.063 64.5912 107.563 68.3967 106.52C72.2022 105.476 75.3725 103.015 77.3262 99.5863C79.28 96.1581 79.7805 92.1736 78.7372 88.3701C77.6939 84.5646 75.232 81.3943 71.8038 79.4405C69.5459 78.1547 67.0455 77.4964 64.5142 77.4964L64.5162 77.4983Z" fill="black"/>
<path d="M65.1945 99.3867C65.077 99.3867 64.9635 99.3385 64.8807 99.2481L57.6316 91.2964C57.4738 91.1232 57.4853 90.8556 57.6586 90.6978C57.8318 90.5399 58.0994 90.5534 58.2572 90.7247L64.7383 97.8352C64.6324 91.9278 65.3446 87.3504 66.9115 83.8644C67.0077 83.6508 67.2579 83.5545 67.4716 83.6508C67.6853 83.747 67.7815 83.9972 67.6853 84.2109C66.0741 87.797 65.3985 92.6169 65.616 98.9459C65.6218 99.123 65.5159 99.2866 65.3523 99.3539C65.3003 99.3751 65.2464 99.3847 65.1925 99.3847L65.1945 99.3867Z" fill="black"/>
<path d="M238.017 338.46H77.9519C71.055 338.46 66.1677 332.885 67.0378 326.01L106.452 14.6504C107.322 7.77471 113.62 2.20025 120.517 2.20025L272.546 0.423584C289.997 0.423584 292.364 7.77278 291.494 14.6485L252.082 326.01C251.212 332.885 244.914 338.46 238.017 338.46Z" fill="black"/>
<path d="M238.016 338.883H77.9504C74.5029 338.883 71.4231 337.545 69.2807 335.114C67.1248 332.668 66.1778 329.415 66.6167 325.956L106.031 14.5964C106.926 7.52821 113.424 1.77667 120.515 1.77667L272.54 0C280.879 0 286.609 1.70737 289.576 5.07206C291.668 7.44737 292.434 10.5965 291.914 14.7022L252.502 326.063C251.607 333.133 245.109 338.883 238.016 338.883ZM272.546 0.846948L120.521 2.62361C113.836 2.62361 107.715 8.04215 106.872 14.7022L67.4598 326.063C67.0536 329.278 67.9256 332.292 69.9198 334.554C71.8985 336.798 74.7512 338.036 77.9523 338.036H238.016C244.697 338.036 250.816 332.618 251.661 325.958L291.073 14.5964C291.56 10.7466 290.863 7.81502 288.94 5.63413C286.142 2.45807 280.625 0.848873 272.546 0.848873V0.846948Z" fill="black"/>
<path d="M228.381 338.46H68.3171C61.4203 338.46 56.533 332.868 57.403 325.971L96.8169 13.6186C97.687 6.72178 103.985 1.13 110.882 1.13H270.946C277.842 1.13 282.73 6.72178 281.86 13.6186L242.448 325.971C241.578 332.868 235.279 338.46 228.383 338.46H228.381Z" fill="white"/>
<path d="M228.379 338.883H68.3153C64.8755 338.883 61.7996 337.545 59.6591 335.116C57.4936 332.66 56.5427 329.393 56.9816 325.917L96.3935 13.5646C97.2886 6.47334 103.787 0.704468 110.88 0.704468H270.944C274.385 0.704468 277.459 2.04226 279.6 4.47146C281.765 6.92761 282.716 10.1941 282.277 13.6705L242.865 326.023C241.97 333.114 235.472 338.883 228.379 338.883ZM110.88 1.55334C104.199 1.55334 98.0778 6.9892 97.2347 13.6724L57.8228 326.025C57.4147 329.257 58.2924 332.286 60.2943 334.558C62.2731 336.802 65.1219 338.038 68.3153 338.038H228.379C235.06 338.038 241.181 332.602 242.024 325.919L281.436 13.5646C281.844 10.3327 280.967 7.30296 278.965 5.0316C276.986 2.78719 274.137 1.55142 270.944 1.55142H110.88V1.55334Z" fill="black"/>
<path d="M66.5318 326.4L104.163 28.1574C104.363 26.5655 105.819 25.2739 107.411 25.2739H268.336C269.928 25.2739 271.056 26.5655 270.856 28.1574L233.223 326.4C233.023 327.992 231.567 329.284 229.975 329.284H69.0515C67.4596 329.284 66.3316 327.992 66.5318 326.4Z" fill="white"/>
<path d="M229.97 329.707H69.0463C68.157 329.707 67.3601 329.359 66.8038 328.727C66.2417 328.09 65.9934 327.243 66.107 326.346L103.738 28.1052C103.966 26.3112 105.609 24.8522 107.405 24.8522H268.331C269.22 24.8522 270.017 25.2006 270.574 25.8319C271.136 26.4691 271.384 27.316 271.27 28.213L233.639 326.456C233.412 328.25 231.766 329.711 229.972 329.711L229.97 329.707ZM66.9462 326.452C66.8635 327.105 67.0386 327.713 67.439 328.165C67.8336 328.612 68.4034 328.858 69.0463 328.858H229.972C231.356 328.858 232.623 327.73 232.798 326.346L270.429 28.1033C270.512 27.4508 270.337 26.8425 269.938 26.3902C269.544 25.9436 268.974 25.6972 268.331 25.6972H107.405C106.021 25.6972 104.755 26.8233 104.58 28.2092L66.9462 326.452Z" fill="black"/>
<path d="M188.911 17.0156C186.328 17.0156 184.497 14.9214 184.823 12.3362C185.148 9.75306 187.508 7.65686 190.091 7.65686C192.674 7.65686 194.505 9.75113 194.179 12.3362C193.854 14.9194 191.494 17.0156 188.911 17.0156Z" fill="black"/>
<mask id="mask0_2739_718" style="mask-type:luminance" maskUnits="userSpaceOnUse" x="66" y="25" width="205" height="305">
<path d="M66.5318 326.4L104.163 28.1574C104.363 26.5655 105.819 25.2739 107.411 25.2739H268.336C269.928 25.2739 271.056 26.5655 270.856 28.1574L233.223 326.4C233.023 327.992 231.567 329.284 229.975 329.284H69.0515C67.4596 329.284 66.3316 327.992 66.5318 326.4Z" fill="white"/>
</mask>
<g mask="url(#mask0_2739_718)">
<path d="M256.057 165.041H85.0098L85.5776 158.835H256.624L256.057 165.041Z" fill="black"/>
<path d="M236.427 313.975H66.9658L67.5298 307.77H236.991L236.427 313.975Z" fill="black"/>
<path d="M211.083 204.737C213.499 199.738 213.464 193.228 212.19 185.95L207.008 190.39L200.918 185.097C202.993 193.665 203.961 201.306 200.115 204.908L211.081 204.737H211.083Z" fill="black"/>
<path d="M180.04 307.638H202.089C205.897 307.638 209.271 304.569 209.65 300.762L219.015 206.81C219.4 202.955 216.568 199.811 212.713 199.811H187.92C184.034 199.811 180.615 203.003 180.342 206.889L173.722 300.841C173.457 304.617 176.265 307.638 180.042 307.638H180.04Z" fill="white"/>
<path d="M202.086 308.06H180.037C178.095 308.06 176.326 307.31 175.057 305.949C173.785 304.582 173.159 302.757 173.296 300.811L179.915 206.86C180.206 202.74 183.796 199.387 187.917 199.387H212.71C214.688 199.387 216.481 200.161 217.753 201.568C219.035 202.985 219.632 204.86 219.431 206.852L210.067 300.803C209.668 304.805 206.086 308.06 202.084 308.06H202.086ZM187.917 200.234C184.231 200.234 181.022 203.233 180.761 206.917L174.141 300.869C174.02 302.58 174.566 304.178 175.677 305.369C176.784 306.557 178.333 307.211 180.037 307.211H202.086C205.667 307.211 208.87 304.299 209.226 300.719L218.59 206.767C218.765 205.018 218.246 203.372 217.125 202.136C216.015 200.91 214.448 200.234 212.71 200.234H187.917Z" fill="black"/>
<path d="M188.024 215.669H209.375C210.963 215.669 212.367 214.381 212.511 212.795C212.655 211.207 211.485 209.921 209.897 209.921H188.546C186.958 209.921 185.555 211.209 185.41 212.795C185.266 214.383 186.436 215.669 188.024 215.669Z" fill="black"/>
<path d="M188.139 229.929H206.131C208.647 229.929 210.87 227.891 211.099 225.375L211.293 223.234C211.522 220.719 209.667 218.68 207.153 218.68H189.161C186.645 218.68 184.422 220.719 184.193 223.234L183.999 225.375C183.77 227.891 185.625 229.929 188.139 229.929Z" fill="black"/>
<path d="M73.0203 307.637H93.4356C96.9601 307.637 100.105 304.569 100.483 300.762L109.786 206.81C110.167 202.955 107.568 199.811 103.997 199.811H81.0413C77.4437 199.811 74.2561 203.003 73.977 206.889L67.2149 300.841C66.9435 304.617 69.5228 307.637 73.0203 307.637Z" fill="white"/>
<path d="M93.439 308.06H73.0237C71.3067 308.06 69.7226 307.375 68.5638 306.129C67.276 304.745 66.6485 302.857 66.7967 300.811L73.5588 206.859C73.8553 202.74 77.2142 199.387 81.0466 199.387H104.003C105.751 199.387 107.356 200.095 108.52 201.379C109.801 202.792 110.418 204.786 110.214 206.852L100.911 300.803C100.515 304.805 97.1637 308.06 93.4429 308.06H93.439ZM81.0447 200.234C77.6473 200.234 74.6676 203.233 74.4039 206.919L67.6418 300.871C67.5109 302.68 68.0595 304.343 69.1836 305.552C70.1807 306.624 71.5435 307.213 73.0237 307.213H93.439C96.7383 307.213 99.7103 304.301 100.064 300.72L109.367 206.769C109.548 204.942 109.009 203.187 107.889 201.949C106.888 200.844 105.506 200.234 104.001 200.234H81.0447Z" fill="black"/>
<path d="M69.0887 306.487C69.0772 306.487 69.0656 306.487 69.0541 306.487C68.8212 306.468 68.6479 306.264 68.6653 306.031L72.2398 262.344C72.259 262.111 72.463 261.936 72.696 261.955C72.9289 261.974 73.1021 262.178 73.0848 262.411L69.5103 306.098C69.493 306.32 69.3062 306.487 69.0887 306.487Z" fill="black"/>
<path d="M82.3663 212.902H100.882C102.47 212.902 103.873 211.614 104.017 210.028L104.137 208.719C104.281 207.131 103.111 205.845 101.523 205.845H83.0073C81.4192 205.845 80.016 207.133 79.8716 208.719L79.7523 210.028C79.6079 211.616 80.7782 212.902 82.3663 212.902Z" fill="black"/>
<path d="M82.2133 230.406H97.3698C99.8856 230.406 102.109 228.368 102.338 225.852L102.765 221.151C102.994 218.636 101.139 216.597 98.6248 216.597H83.4683C80.9525 216.597 78.7292 218.636 78.5002 221.151L78.0728 225.852C77.8438 228.368 79.6994 230.406 82.2133 230.406Z" fill="black"/>
<path d="M140.917 200.168L118.885 199.993C115.081 199.962 111.684 203.007 111.274 206.813L101.167 300.755C100.753 304.61 103.555 307.779 107.407 307.809L132.182 308.006C136.067 308.037 139.506 304.868 139.81 300.984L147.175 207.021C147.471 203.244 144.688 200.199 140.915 200.17L140.917 200.168Z" fill="white"/>
<path d="M132.233 308.429C132.213 308.429 132.192 308.429 132.173 308.429L107.398 308.233C105.421 308.218 103.638 307.428 102.378 306.014C101.105 304.587 100.524 302.703 100.738 300.709L110.845 206.767C111.274 202.786 114.845 199.568 118.822 199.568C118.841 199.568 118.86 199.568 118.88 199.568L140.912 199.743C142.852 199.758 144.611 200.52 145.868 201.891C147.131 203.267 147.743 205.1 147.591 207.05L140.227 301.013C139.905 305.113 136.325 308.427 132.233 308.427V308.429ZM118.822 200.416C115.267 200.416 112.071 203.296 111.688 206.859L101.581 300.801C101.392 302.553 101.9 304.204 103.011 305.451C104.11 306.685 105.671 307.372 107.404 307.386L132.179 307.582C132.196 307.582 132.215 307.582 132.233 307.582C135.894 307.582 139.095 304.618 139.382 300.951L146.746 206.988C146.881 205.275 146.348 203.669 145.245 202.468C144.148 201.273 142.608 200.607 140.906 200.594L118.874 200.418C118.857 200.418 118.839 200.418 118.822 200.418V200.416Z" fill="black"/>
<path d="M129.464 285.244L113.87 285.121C110.698 285.096 107.873 287.648 107.561 290.822L107.099 295.504C106.785 298.678 109.103 301.271 112.275 301.296L127.868 301.419C131.04 301.444 133.866 298.891 134.178 295.717L134.64 291.036C134.954 287.862 132.636 285.269 129.464 285.244Z" fill="black"/>
<path d="M134.646 274.594L111.886 274.413C110.693 274.403 109.632 275.364 109.513 276.557L109.314 278.557C109.197 279.751 110.067 280.727 111.26 280.734L134.022 280.915C135.216 280.925 136.276 279.964 136.395 278.771L136.594 276.771C136.711 275.577 135.841 274.602 134.648 274.594H134.646Z" fill="black"/>
<path d="M135.119 268.03L112.161 267.849C111.024 267.839 110.009 268.756 109.898 269.895C109.786 271.035 110.618 271.964 111.755 271.974L134.713 272.155C135.851 272.165 136.865 271.248 136.977 270.109C137.089 268.969 136.257 268.04 135.119 268.03Z" fill="black"/>
<path d="M250.589 199.69L228.557 199.514C224.753 199.484 221.356 202.529 220.946 206.334L210.838 300.276C210.425 304.132 213.227 307.3 217.079 307.331L241.854 307.527C245.738 307.558 249.178 304.39 249.482 300.505L256.847 206.542C257.143 202.766 254.36 199.72 250.587 199.691L250.589 199.69Z" fill="white"/>
<path d="M241.913 307.951C241.892 307.951 241.873 307.951 241.854 307.951L217.078 307.754C215.102 307.739 213.319 306.95 212.058 305.535C210.786 304.109 210.205 302.224 210.418 300.23L220.526 206.288C220.955 202.305 224.526 199.089 228.503 199.089C228.522 199.089 228.541 199.089 228.56 199.089L250.593 199.264C252.531 199.28 254.292 200.044 255.549 201.414C256.812 202.791 257.424 204.623 257.272 206.573L249.907 300.536C249.586 304.636 246.006 307.951 241.913 307.951ZM228.503 199.938C224.947 199.938 221.752 202.817 221.369 206.38L211.261 300.322C211.073 302.074 211.581 303.726 212.692 304.973C213.791 306.207 215.352 306.894 217.086 306.907L241.861 307.104C245.547 307.121 248.775 304.159 249.064 300.472L256.429 206.509C256.563 204.796 256.03 203.191 254.927 201.99C253.83 200.794 252.29 200.128 250.589 200.115L228.556 199.94C228.539 199.94 228.522 199.94 228.504 199.94L228.503 199.938Z" fill="black"/>
<path d="M235.563 308.195C235.545 308.195 235.528 308.195 235.509 308.191C235.276 308.162 235.112 307.95 235.141 307.717L248.781 199.626C248.81 199.395 249.021 199.229 249.254 199.258C249.487 199.287 249.651 199.499 249.622 199.732L235.982 307.823C235.955 308.037 235.772 308.195 235.563 308.195Z" fill="black"/>
<path d="M239.144 284.765L223.55 284.642C220.378 284.617 217.552 287.169 217.24 290.343L216.778 295.025C216.465 298.199 218.782 300.792 221.954 300.817L237.548 300.94C240.72 300.965 243.546 298.412 243.858 295.238L244.32 290.557C244.633 287.383 242.316 284.79 239.144 284.765Z" fill="black"/>
<path d="M244.325 274.115L221.566 273.934C220.372 273.925 219.312 274.885 219.192 276.079L218.994 278.079C218.877 279.272 219.747 280.248 220.94 280.256L243.702 280.437C244.895 280.446 245.956 279.486 246.075 278.292L246.273 276.292C246.391 275.099 245.521 274.123 244.327 274.115H244.325Z" fill="black"/>
<path d="M244.799 267.553L221.841 267.372C220.703 267.362 219.689 268.279 219.577 269.418C219.466 270.558 220.297 271.487 221.435 271.497L244.393 271.678C245.531 271.687 246.545 270.771 246.657 269.632C246.768 268.492 245.937 267.562 244.799 267.553Z" fill="black"/>
<path d="M146.253 308.456H164.087C167.167 308.456 169.949 305.388 170.322 301.581L179.527 207.629C179.904 203.773 177.669 200.63 174.551 200.63H154.498C151.354 200.63 148.534 203.822 148.246 207.708L141.26 301.659C140.979 305.436 143.199 308.456 146.253 308.456Z" fill="white"/>
<path d="M164.083 308.881H146.249C144.869 308.881 143.568 308.3 142.588 307.245C141.31 305.867 140.669 303.821 140.833 301.63L147.818 207.679C148.124 203.56 151.119 200.208 154.494 200.208H174.549C175.952 200.208 177.269 200.807 178.254 201.893C179.55 203.321 180.168 205.429 179.946 207.673L170.742 301.625C170.349 305.626 167.363 308.883 164.085 308.883L164.083 308.881ZM154.494 201.055C151.552 201.055 148.938 204.054 148.663 207.74L141.678 301.692C141.531 303.65 142.09 305.463 143.21 306.668C144.04 307.561 145.091 308.033 146.249 308.033H164.083C166.938 308.033 169.546 305.12 169.897 301.54L179.101 207.588C179.298 205.581 178.759 203.714 177.625 202.461C176.791 201.54 175.727 201.053 174.547 201.053H154.492L154.494 201.055Z" fill="black"/>
<path d="M154.088 218.245H172.411C173.872 218.245 175.164 217.061 175.296 215.6L175.822 209.822C175.955 208.361 174.879 207.177 173.418 207.177H155.095C153.634 207.177 152.342 208.361 152.209 209.822L151.684 215.6C151.551 217.061 152.627 218.245 154.088 218.245Z" fill="black"/>
<path d="M153.147 230.176H170.785C172.435 230.176 173.894 228.838 174.044 227.188L174.223 225.208C174.373 223.558 173.157 222.22 171.507 222.22H153.869C152.22 222.22 150.761 223.558 150.61 225.208L150.431 227.188C150.281 228.838 151.498 230.176 153.147 230.176Z" fill="black"/>
<path d="M146.978 54.8532C145.471 49.8542 146.686 43.3443 149.28 36.0663L153.656 40.507L160.706 35.2117C157.076 43.7793 154.72 51.4211 157.913 55.0226L146.978 54.8512V54.8532Z" fill="black"/>
<path d="M152.034 158.471H129.985C126.177 158.471 123.359 155.402 123.671 151.595L131.359 57.6435C131.675 53.788 135.076 50.6447 138.931 50.6447H163.724C167.61 50.6447 170.45 53.8361 170.018 57.7224L159.585 151.674C159.166 155.451 155.809 158.471 152.032 158.471H152.034Z" fill="white"/>
<path d="M152.034 158.894H129.985C128.027 158.894 126.25 158.133 124.98 156.755C123.704 155.369 123.09 153.525 123.249 151.56L130.937 57.6083C131.27 53.5333 134.857 50.2206 138.931 50.2206H163.724C165.718 50.2206 167.518 51.004 168.792 52.4284C170.076 53.8644 170.661 55.7604 170.438 57.77L160.005 151.722C159.559 155.745 156.055 158.896 152.03 158.896L152.034 158.894ZM138.933 51.0675C135.29 51.0675 132.083 54.0319 131.784 57.6776L124.096 151.629C123.956 153.356 124.491 154.971 125.606 156.181C126.714 157.385 128.27 158.047 129.987 158.047H152.036C155.576 158.047 158.775 155.167 159.168 151.627L169.601 57.6756C169.797 55.9105 169.287 54.2474 168.165 52.9943C167.054 51.7528 165.478 51.0695 163.728 51.0695H138.935L138.933 51.0675Z" fill="black"/>
<path d="M153.286 138.105H131.936C130.348 138.105 129.177 136.817 129.322 135.231C129.466 133.643 130.869 132.357 132.457 132.357H153.808C155.396 132.357 156.566 133.645 156.422 135.231C156.278 136.819 154.874 138.105 153.286 138.105Z" fill="black"/>
<path d="M150.584 152.366H132.592C130.076 152.366 128.223 150.328 128.452 147.812L128.646 145.671C128.875 143.155 131.098 141.117 133.614 141.117H151.606C154.122 141.117 155.976 143.155 155.747 145.671L155.552 147.812C155.323 150.328 153.1 152.366 150.584 152.366Z" fill="black"/>
<path d="M262.087 158.47H241.672C238.148 158.47 235.559 155.402 235.872 151.595L243.624 57.6433C243.942 53.7877 247.112 50.6444 250.682 50.6444H273.639C277.236 50.6444 279.844 53.8359 279.419 57.7222L269.127 151.674C268.713 155.45 265.585 158.47 262.087 158.47Z" fill="white"/>
<path d="M262.086 158.893H241.67C239.942 158.893 238.348 158.198 237.187 156.938C235.915 155.556 235.28 153.594 235.447 151.56L243.199 57.608C243.536 53.535 246.891 50.2203 250.679 50.2203H273.635C275.396 50.2203 277.007 50.9364 278.174 52.2376C279.46 53.6717 280.064 55.687 279.837 57.7678L269.545 151.719C269.104 155.742 265.828 158.893 262.084 158.893H262.086ZM250.681 51.0673C247.322 51.0673 244.346 54.0316 244.046 57.6773L236.294 151.629C236.146 153.429 236.698 155.155 237.811 156.364C238.81 157.448 240.181 158.046 241.67 158.046H262.086C265.346 158.046 268.317 155.167 268.703 151.627L278.996 57.6754C279.198 55.8333 278.669 54.0566 277.544 52.8035C276.542 51.6852 275.154 51.0692 273.637 51.0692H250.681V51.0673Z" fill="black"/>
<path d="M254.573 159.255C254.556 159.255 254.539 159.255 254.521 159.252C254.288 159.223 254.123 159.011 254.152 158.778L263.222 85.2052C263.251 84.9723 263.468 84.8087 263.693 84.8357C263.926 84.8645 264.092 85.0763 264.063 85.3092L254.993 158.882C254.966 159.098 254.783 159.254 254.573 159.254V159.255Z" fill="black"/>
<path d="M263.488 134.861H244.973C243.385 134.861 242.214 133.573 242.359 131.987L242.478 130.678C242.622 129.09 244.026 127.805 245.614 127.805H264.129C265.717 127.805 266.887 129.092 266.743 130.678L266.624 131.987C266.479 133.575 265.076 134.861 263.488 134.861Z" fill="black"/>
<path d="M260.463 152.366H245.306C242.79 152.366 240.937 150.328 241.166 147.812L241.593 143.112C241.822 140.596 244.045 138.557 246.561 138.557H261.718C264.233 138.557 266.087 140.596 265.858 143.112L265.431 147.812C265.202 150.328 262.978 152.366 260.463 152.366Z" fill="black"/>
<path d="M223.73 158.741H201.681C197.874 158.741 195.055 155.673 195.367 151.865L203.055 57.9139C203.371 54.0584 206.772 50.915 210.628 50.915H235.42C239.307 50.915 242.146 54.1065 241.715 57.9928L231.282 151.944C230.862 155.721 227.505 158.741 223.729 158.741H223.73Z" fill="white"/>
<path d="M223.728 159.164H201.678C199.72 159.164 197.944 158.404 196.673 157.026C195.397 155.64 194.783 153.796 194.943 151.831L202.631 57.8792C202.964 53.8042 206.552 50.4915 210.625 50.4915H235.417C237.411 50.4915 239.211 51.2749 240.486 52.6993C241.771 54.1353 242.355 56.0313 242.133 58.0408L231.7 151.992C231.254 156.015 227.751 159.166 223.726 159.166L223.728 159.164ZM210.627 51.3384C206.983 51.3384 203.776 54.3027 203.478 57.9484L195.79 151.9C195.649 153.627 196.184 155.244 197.299 156.452C198.408 157.655 199.963 158.318 201.682 158.318H223.731C227.271 158.318 230.47 155.438 230.863 151.898L241.296 57.9465C241.492 56.1814 240.982 54.5183 239.86 53.2652C238.749 52.0237 237.173 51.3403 235.423 51.3403H210.631L210.627 51.3384Z" fill="black"/>
<path d="M228.399 73.6391H212.794C209.62 73.6391 207.279 71.0655 207.568 67.8914L207.993 63.2101C208.282 60.036 211.089 57.4624 214.263 57.4624H229.868C233.042 57.4624 235.383 60.036 235.094 63.2101L234.668 67.8914C234.38 71.0655 231.573 73.6391 228.399 73.6391Z" fill="black"/>
<path d="M231.565 84.3214H208.788C207.594 84.3214 206.715 83.3532 206.822 82.1598L207.003 80.1598C207.111 78.9664 208.166 77.9982 209.359 77.9982H232.137C233.33 77.9982 234.21 78.9664 234.102 80.1598L233.921 82.1598C233.813 83.3532 232.758 84.3214 231.565 84.3214Z" fill="black"/>
<path d="M230.788 90.8835H207.812C206.673 90.8835 205.833 89.9595 205.937 88.8219C206.041 87.6843 207.048 86.7604 208.188 86.7604H231.163C232.302 86.7604 233.142 87.6843 233.038 88.8219C232.934 89.9615 231.927 90.8835 230.788 90.8835Z" fill="black"/>
<path d="M186.381 159.29H169.319C166.372 159.29 164.243 156.222 164.547 152.415L172.056 58.4631C172.364 54.6076 175.05 51.4642 178.033 51.4642H197.22C200.227 51.4642 202.371 54.6557 201.973 58.542L192.339 152.494C191.952 156.27 189.303 159.29 186.381 159.29Z" fill="white"/>
<path d="M186.384 159.714H169.322C168.01 159.714 166.816 159.173 165.873 158.151C164.583 156.753 163.948 154.651 164.129 152.382L171.638 58.4303C171.963 54.3553 174.833 51.0406 178.036 51.0406H197.223C198.538 51.0406 199.778 51.6123 200.715 52.6498C202.024 54.0993 202.636 56.2628 202.399 58.5862L192.765 152.538C192.353 156.563 189.551 159.716 186.386 159.716L186.384 159.714ZM178.036 51.8876C175.266 51.8876 172.774 54.8519 172.483 58.4957L164.974 152.447C164.812 154.482 165.367 156.351 166.497 157.573C167.276 158.418 168.254 158.865 169.324 158.865H186.386C189.075 158.865 191.56 155.987 191.922 152.449L201.556 58.4976C201.766 56.4438 201.218 54.4689 200.088 53.2158C199.302 52.3457 198.313 51.8857 197.225 51.8857H178.038L178.036 51.8876Z" fill="black"/>
<path d="M194.786 66.3208H177.256C175.859 66.3208 174.829 65.137 174.956 63.676L175.218 60.6539C175.345 59.193 176.581 58.0092 177.978 58.0092H195.508C196.905 58.0092 197.935 59.193 197.808 60.6539L197.546 63.676C197.419 65.137 196.184 66.3208 194.786 66.3208Z" fill="black"/>
<path d="M193.882 75.2804H177.009C175.43 75.2804 174.268 73.9426 174.41 72.293C174.553 70.6433 175.948 69.3055 177.527 69.3055H194.4C195.979 69.3055 197.141 70.6433 196.999 72.293C196.856 73.9426 195.461 75.2804 193.882 75.2804Z" fill="black"/>
<path d="M114.329 158.813H97.0728C94.093 158.813 91.9391 155.745 92.2471 151.938L99.8407 57.9862C100.153 54.1306 102.867 50.9873 105.885 50.9873H125.288C128.329 50.9873 130.496 54.1788 130.094 58.0651L120.352 152.017C119.962 155.793 117.282 158.813 114.327 158.813H114.329Z" fill="white"/>
<path d="M114.328 159.235H97.0715C95.7549 159.235 94.5095 158.672 93.5644 157.649C92.2747 156.252 91.6414 154.158 91.8224 151.902L99.416 57.9502C99.7452 53.8752 102.646 50.5605 105.882 50.5605H125.286C126.626 50.5605 127.885 51.1399 128.836 52.1928C130.143 53.6423 130.755 55.7962 130.516 58.1061L120.775 152.058C120.357 156.083 117.525 159.234 114.328 159.234V159.235ZM105.886 51.4094C103.081 51.4094 100.559 54.3737 100.265 58.0195L92.6712 151.971C92.5076 153.99 93.062 155.852 94.1919 157.074C94.9849 157.932 95.982 158.387 97.0754 158.387H114.332C117.056 158.387 119.568 155.509 119.935 151.971L129.677 58.0195C129.893 55.9502 129.358 54.033 128.21 52.7626C127.411 51.8772 126.403 51.4094 125.292 51.4094H105.887H105.886Z" fill="black"/>
<path d="M122.83 65.8423H105.101C103.688 65.8423 102.647 64.6585 102.774 63.1975L103.04 60.1754C103.169 58.7144 104.418 57.5306 105.831 57.5306H123.559C124.972 57.5306 126.013 58.7144 125.886 60.1754L125.621 63.1975C125.492 64.6585 124.242 65.8423 122.83 65.8423Z" fill="black"/>
<path d="M121.902 74.8008H104.838C103.242 74.8008 102.066 73.463 102.21 71.8133C102.355 70.1637 103.767 68.8259 105.363 68.8259H122.427C124.023 68.8259 125.199 70.1637 125.055 71.8133C124.91 73.463 123.497 74.8008 121.902 74.8008Z" fill="black"/>
</g>
<path d="M329.605 146.118C329.478 146.118 329.35 146.06 329.268 145.952C329.125 145.765 329.162 145.5 329.347 145.357L330.324 144.609C331.246 143.904 332.342 142.485 332.351 142.472C332.494 142.287 332.759 142.252 332.946 142.395C333.131 142.537 333.168 142.803 333.023 142.99C332.975 143.051 331.849 144.51 330.838 145.284L329.861 146.033C329.784 146.091 329.693 146.12 329.603 146.12L329.605 146.118Z" fill="black"/>
<path d="M327.944 144.253C327.79 144.253 327.643 144.17 327.566 144.024C327.459 143.816 327.539 143.56 327.747 143.452L328.841 142.885C329.87 142.349 331.193 141.141 331.206 141.129C331.379 140.971 331.647 140.983 331.805 141.154C331.963 141.327 331.951 141.595 331.778 141.753C331.72 141.805 330.359 143.048 329.231 143.635L328.138 144.203C328.076 144.236 328.009 144.251 327.944 144.251V144.253Z" fill="black"/>
<path d="M290.392 124.173C287.395 124.56 271.099 127.857 269.715 146.217C269.682 146.639 269.904 147.043 270.269 147.253L279.692 152.677C280.046 152.881 280.26 153.26 280.246 153.668C280.142 157.025 279.603 172.284 278.179 178.694C277.068 183.691 276.296 187.766 275.927 189.802C275.796 190.52 276.385 191.163 277.112 191.098C279.418 190.886 283.994 190.376 287.01 189.45C290.798 188.285 292.471 186.062 301.628 189.86C303.551 190.657 305.73 190.549 307.57 189.575C312.584 186.922 323.023 182.214 330.22 184.591C331.036 184.861 331.831 184.145 331.644 183.306C330.593 178.594 328.395 169.506 328.16 164.704C327.868 158.704 331.317 138.72 329.712 136.633C328.183 134.647 321.452 130.077 316.904 128.826C315.239 128.368 313.487 128.323 312.082 127.977C308.557 127.109 298.789 123.084 290.392 124.171V124.173Z" fill="#FEC524"/>
<path d="M277.008 191.528C276.581 191.528 276.178 191.353 275.886 191.034C275.56 190.679 275.424 190.204 275.51 189.73C275.872 187.736 276.648 183.638 277.766 178.605C279.191 172.195 279.732 156.699 279.824 153.658C279.832 153.408 279.701 153.173 279.481 153.048L270.059 147.624C269.551 147.331 269.251 146.767 269.293 146.188C270.75 126.843 288.338 124.013 290.34 123.755C297.127 122.877 304.786 125.289 309.361 126.729C310.501 127.087 311.484 127.397 312.185 127.57C312.795 127.72 313.483 127.813 314.21 127.911C315.128 128.034 316.075 128.161 317.019 128.421C321.688 129.705 328.445 134.288 330.05 136.378C331.02 137.639 330.5 143.221 329.532 152.265C328.984 157.383 328.466 162.218 328.587 164.688C328.789 168.817 330.473 176.227 331.588 181.132C331.761 181.89 331.919 182.593 332.06 183.219C332.181 183.761 332.008 184.31 331.596 184.681C331.182 185.055 330.62 185.174 330.088 184.999C323.147 182.707 313.124 187.12 307.769 189.956C305.806 190.995 303.508 191.105 301.467 190.258C294.064 187.186 291.72 188.112 289.006 189.182C288.419 189.413 287.812 189.653 287.137 189.859C284.111 190.789 279.583 191.303 277.154 191.524C277.106 191.528 277.058 191.53 277.012 191.53L277.008 191.528ZM290.394 124.173L290.447 124.592C288.517 124.843 271.547 127.572 270.138 146.249C270.119 146.505 270.254 146.756 270.481 146.886L279.903 152.311C280.394 152.594 280.686 153.119 280.671 153.683C280.577 156.738 280.034 172.304 278.594 178.787C277.478 183.808 276.706 187.892 276.346 189.881C276.307 190.092 276.369 190.302 276.511 190.46C276.656 190.618 276.86 190.697 277.073 190.677C279.47 190.458 283.932 189.954 286.885 189.045C287.529 188.847 288.12 188.614 288.692 188.389C291.458 187.297 294.07 186.268 301.789 189.471C303.598 190.221 305.633 190.123 307.371 189.203C312.847 186.304 323.115 181.8 330.352 184.191C330.589 184.27 330.841 184.216 331.024 184.05C331.207 183.885 331.284 183.642 331.23 183.399C331.091 182.776 330.932 182.073 330.758 181.317C329.636 176.383 327.942 168.93 327.736 164.726C327.613 162.191 328.135 157.325 328.687 152.172C329.365 145.847 330.208 137.976 329.376 136.892C327.836 134.891 321.171 130.44 316.791 129.235C315.904 128.991 314.986 128.868 314.097 128.748C313.346 128.646 312.636 128.552 311.981 128.39C311.254 128.211 310.258 127.897 309.105 127.536C304.595 126.115 297.052 123.74 290.447 124.594L290.394 124.175V124.173Z" fill="black"/>
<path d="M274.289 168.898C277.092 173.083 280.335 174.417 287.401 172.594C294.467 170.771 309.453 160.044 316.862 149.826C316.862 149.826 317.372 148.889 318.819 149.06C320.267 149.23 326.226 151.53 330.653 147.613C335.081 143.696 334.024 140.887 333.802 140.356C333.429 139.455 326.823 140.606 325.035 139.809C323.246 139.012 323.268 137.777 324.609 135.948C326.211 133.765 322.64 133.269 319.926 137.14C318.276 139.494 315.499 142.589 312.987 143.861C310.39 145.174 283.994 154.675 282.633 154.252C281.27 153.828 272.699 148.648 272.699 148.648C272.699 148.648 271.236 164.34 274.289 168.898Z" fill="white"/>
<path d="M282.116 173.81C278.514 173.81 276.074 172.334 273.931 169.133C270.83 164.501 272.212 149.254 272.272 148.608C272.286 148.463 272.372 148.334 272.503 148.269C272.634 148.203 272.788 148.209 272.913 148.284C275.284 149.718 281.675 153.51 282.753 153.845C284.241 154.024 309.692 145.05 312.791 143.482C315.268 142.228 317.994 139.151 319.574 136.895C321.158 134.635 323.068 133.736 324.259 133.849C324.777 133.9 325.158 134.138 325.331 134.525C325.478 134.85 325.528 135.403 324.946 136.198C324.236 137.166 323.959 137.89 324.098 138.413C324.201 138.808 324.563 139.137 325.202 139.422C325.994 139.774 328.042 139.693 329.849 139.622C332.577 139.514 333.901 139.495 334.19 140.192C334.632 141.258 335.202 144.15 330.931 147.928C327.027 151.381 322.076 150.228 319.697 149.672C319.289 149.578 318.968 149.503 318.766 149.478C317.645 149.347 317.243 150.003 317.226 150.032C317.218 150.043 317.208 150.061 317.199 150.072C309.865 160.188 294.741 171.134 287.502 173.002C285.444 173.533 283.671 173.808 282.116 173.808V173.81ZM273.059 149.362C272.826 152.401 272.055 164.807 274.636 168.661C277.09 172.326 279.948 174.076 287.29 172.182C294.391 170.349 309.261 159.568 316.502 149.589C316.619 149.399 317.289 148.452 318.864 148.636C319.112 148.665 319.455 148.746 319.888 148.846C322.128 149.368 326.79 150.455 330.369 147.293C334.169 143.93 333.793 141.495 333.426 140.562C333.056 140.344 331.227 140.415 329.884 140.469C327.891 140.548 325.832 140.629 324.858 140.196C323.969 139.799 323.453 139.287 323.278 138.631C323.066 137.834 323.38 136.9 324.263 135.697C324.567 135.283 324.615 135.001 324.56 134.873C324.5 134.741 324.275 134.704 324.18 134.696C323.414 134.623 321.745 135.28 320.271 137.384C318.635 139.718 315.794 142.916 313.176 144.24C311.617 145.029 284.262 155.198 282.505 154.656C281.307 154.284 275.04 150.55 273.063 149.364L273.059 149.362Z" fill="black"/>
<path d="M329.24 148.613L329.138 149.553L328.551 154.975C327.946 159.749 328.416 163.639 328.416 163.639C328.406 165.138 329.321 166.904 330.445 167.895C331.74 169.038 332.418 169.273 333.475 169.658C337.448 171.104 339.18 170.657 340.624 166.551C342.065 162.446 341.557 159.901 338.164 147.174C338.164 147.174 337.23 144.604 339.861 142.877C342.198 141.343 341.426 137.657 339.272 134.868C335.835 130.417 328.626 148.02 329.244 148.613H329.24Z" fill="white"/>
<path d="M336.76 170.834C335.86 170.834 334.762 170.58 333.326 170.057L333.276 170.037C332.243 169.662 331.496 169.391 330.162 168.212C328.882 167.083 327.991 165.215 327.991 163.662C327.946 163.281 327.542 159.539 328.127 154.921L328.803 148.686C328.737 148.456 328.786 148.069 329.019 147.285C329.787 144.714 334.054 134.421 337.619 133.759C338.146 133.661 338.92 133.728 339.602 134.61C341.161 136.627 341.942 138.995 341.642 140.787C341.467 141.834 340.93 142.681 340.089 143.233C337.782 144.748 338.525 146.941 338.558 147.033C342.044 160.099 342.495 162.498 341.02 166.694C340.281 168.798 339.453 169.972 338.335 170.501C337.869 170.723 337.357 170.834 336.76 170.834ZM329.623 148.436C329.654 148.506 329.667 148.581 329.659 148.658L328.97 155.021C328.378 159.691 328.832 163.55 328.836 163.589C328.838 163.606 328.839 163.624 328.839 163.643C328.832 164.952 329.625 166.607 330.724 167.579C331.937 168.649 332.551 168.873 333.567 169.242L333.617 169.262C335.769 170.045 337.032 170.182 337.973 169.737C338.87 169.314 339.563 168.288 340.221 166.415C341.615 162.447 341.168 160.101 337.752 147.287C337.752 147.287 336.751 144.413 339.625 142.527C340.273 142.101 340.67 141.47 340.808 140.65C341.07 139.083 340.352 136.968 338.934 135.131C338.514 134.589 338.067 134.452 337.48 134.683C334.225 135.975 329.625 147.22 329.625 148.44L329.623 148.436Z" fill="black"/>
<path d="M331.597 140.275C331.597 140.275 325.761 140.9 323.952 139.472C322.612 138.415 325.112 135.251 325.301 135.003C326.885 132.914 330.581 128.05 331.133 127.359C331.632 126.735 332.583 125.247 333.826 125.357C335.07 125.467 341.951 126.599 342.453 126.82C343.503 127.282 343.06 128.741 342.292 129.544C341.524 130.348 331.597 140.275 331.597 140.275Z" fill="#1FB6FF"/>
<path d="M328.823 140.835C326.989 140.835 324.752 140.642 323.691 139.805C322.277 138.689 323.869 136.175 324.943 134.777C326.188 133.137 330.223 127.823 330.804 127.095C330.862 127.024 330.925 126.939 330.994 126.847C331.572 126.088 332.538 124.818 333.864 124.935C334.908 125.028 342.009 126.161 342.625 126.433C343.079 126.633 343.368 126.991 343.464 127.467C343.631 128.304 343.15 129.261 342.6 129.838C341.837 130.637 332.303 140.171 331.899 140.575C331.832 140.644 331.741 140.687 331.645 140.696C331.535 140.708 330.313 140.835 328.823 140.835ZM333.701 125.775C332.875 125.775 332.124 126.762 331.67 127.359C331.595 127.457 331.528 127.545 331.466 127.622C330.891 128.342 326.862 133.649 325.639 135.258C324.436 136.825 323.545 138.61 324.215 139.139C325.547 140.19 329.718 140.032 331.404 139.869C332.48 138.794 341.273 129.998 341.986 129.253C342.442 128.774 342.721 128.079 342.632 127.632C342.592 127.43 342.48 127.295 342.282 127.209C341.805 127.022 335.135 125.9 333.789 125.78C333.759 125.778 333.73 125.777 333.699 125.777L333.701 125.775Z" fill="#1FB6FF"/>
<path d="M282.963 188.837C282.963 188.837 277.327 235.702 276.632 244.743C275.937 253.785 274.894 285.428 276.632 301.077C277.758 311.215 278.539 317.995 278.949 321.513C279.14 323.146 280.522 324.374 282.164 324.374H293.65C294.237 324.374 294.714 323.904 294.722 323.317C294.774 319.096 295.151 303.017 297.842 289.252C300.972 273.257 304.448 248.22 306.188 238.135C306.768 234.771 307.257 231.027 307.669 227.365L308.97 231.181C310.271 234.996 315.229 260.737 316.619 270.822C317.884 279.994 320.013 316.788 320.388 323.365C320.421 323.933 320.891 324.374 321.458 324.374H336.166C336.717 324.374 337.179 323.958 337.233 323.409C337.916 316.59 341.945 275.382 341.308 256.914C340.613 236.745 331.572 212.752 329.832 206.146C328.093 199.539 325.761 182.783 325.761 182.783C325.761 182.783 290.501 183.315 282.959 188.837H282.963Z" fill="white"/>
<path d="M336.161 324.796H321.453C320.66 324.796 320.004 324.178 319.959 323.387C319.551 316.213 317.447 279.968 316.194 270.878C314.782 260.628 309.86 235.116 308.562 231.316L307.867 229.28C307.459 232.706 307.042 235.64 306.599 238.207C305.994 241.711 305.182 247.008 304.243 253.141C302.483 264.615 300.295 278.894 298.253 289.334C295.587 302.958 295.196 318.792 295.14 323.322C295.13 324.136 294.459 324.798 293.644 324.798H282.159C280.301 324.798 278.738 323.406 278.523 321.562C278.153 318.388 277.36 311.513 276.205 301.122C274.513 285.889 275.437 254.677 276.205 244.71C276.892 235.763 282.482 189.254 282.538 188.786C282.551 188.669 282.613 188.565 282.709 188.495C290.272 182.957 324.31 182.382 325.755 182.361C325.757 182.361 325.759 182.361 325.761 182.361C325.973 182.361 326.152 182.517 326.181 182.726C326.204 182.894 328.531 199.533 330.242 206.039C330.589 207.351 331.226 209.363 332.034 211.908C335.228 221.975 341.174 240.712 341.732 256.9C342.365 275.244 338.446 315.557 337.655 323.453C337.578 324.221 336.939 324.798 336.167 324.798L336.161 324.796ZM307.663 226.941C307.842 226.941 308.006 227.055 308.064 227.228L309.365 231.043C310.67 234.871 315.617 260.486 317.034 270.763C318.293 279.885 320.396 316.159 320.805 323.339C320.824 323.68 321.109 323.947 321.451 323.947H336.159C336.494 323.947 336.771 323.697 336.804 323.364C337.595 315.478 341.509 275.215 340.877 256.925C340.323 240.854 334.4 222.187 331.218 212.16C330.406 209.602 329.767 207.582 329.414 206.248C327.834 200.241 325.742 185.723 325.386 183.21C321.611 183.289 290.57 184.083 283.35 189.069C282.961 192.309 277.708 236.13 277.042 244.771C276.278 254.713 275.354 285.844 277.042 301.024C278.197 311.411 278.988 318.286 279.36 321.458C279.525 322.875 280.727 323.945 282.155 323.945H293.641C293.993 323.945 294.283 323.659 294.289 323.306C294.345 318.76 294.74 302.862 297.419 289.167C299.458 278.743 301.646 264.474 303.404 253.008C304.345 246.871 305.157 241.57 305.762 238.059C306.279 235.054 306.762 231.54 307.238 227.314C307.261 227.118 307.417 226.962 307.613 226.941C307.629 226.941 307.644 226.939 307.659 226.939L307.663 226.941Z" fill="black"/>
<path d="M307.689 227.663C307.674 227.663 307.656 227.663 307.641 227.661C307.408 227.634 307.241 227.424 307.267 227.191C307.504 225.101 307.731 222.872 307.947 220.572C308.372 216.043 311.406 212.093 315.677 210.512L318.216 209.573C318.438 209.492 318.68 209.604 318.761 209.823C318.842 210.043 318.73 210.287 318.511 210.368L315.972 211.307C312.005 212.776 309.185 216.445 308.79 220.651C308.574 222.957 308.344 225.19 308.109 227.288C308.084 227.503 307.901 227.665 307.687 227.665L307.689 227.663Z" fill="black"/>
<path d="M332.939 324.369H323.566C322.902 324.369 322.304 324.768 322.05 325.382C321.218 327.403 319.526 332.126 319.753 336.606C319.815 337.83 320.833 338.788 322.059 338.788H349.56C350.825 338.788 351.785 337.634 351.533 336.394C351.229 334.91 350.184 332.958 347.169 331.204C342.288 328.363 336.151 325.524 334.217 324.644C333.816 324.462 333.381 324.367 332.941 324.367L332.939 324.369Z" fill="white"/>
<path d="M349.567 339.214H322.066C320.609 339.214 319.412 338.079 319.337 336.629C319.102 332.011 320.886 327.112 321.664 325.222C321.981 324.447 322.73 323.946 323.571 323.946H332.944C333.448 323.946 333.937 324.052 334.395 324.26C336.195 325.078 342.452 327.969 347.386 330.839C350.62 332.722 351.655 334.852 351.952 336.31C352.096 337.02 351.917 337.751 351.455 338.315C350.989 338.885 350.3 339.212 349.563 339.212L349.567 339.214ZM323.573 324.793C323.079 324.793 322.636 325.088 322.449 325.544C321.693 327.382 319.958 332.138 320.184 336.587C320.234 337.586 321.061 338.367 322.066 338.367H349.567C350.048 338.367 350.497 338.154 350.803 337.782C351.101 337.416 351.218 336.943 351.124 336.483C350.86 335.195 349.925 333.299 346.961 331.574C342.062 328.726 335.837 325.848 334.045 325.034C333.696 324.876 333.327 324.795 332.944 324.795H323.571L323.573 324.793Z" fill="black"/>
<path d="M334.211 330.945C334.101 330.945 333.991 330.902 333.908 330.818C333.745 330.65 333.747 330.383 333.914 330.219L337.858 326.338C338.024 326.175 338.293 326.177 338.457 326.344C338.621 326.512 338.619 326.779 338.451 326.943L334.507 330.823C334.424 330.904 334.316 330.945 334.211 330.945Z" fill="black"/>
<path d="M336.758 332.535C336.649 332.535 336.539 332.492 336.456 332.408C336.293 332.24 336.295 331.973 336.462 331.809L340.406 327.928C340.572 327.765 340.841 327.767 341.005 327.934C341.168 328.102 341.166 328.369 340.999 328.533L337.055 332.413C336.972 332.494 336.864 332.535 336.758 332.535Z" fill="black"/>
<path d="M291.585 324.369H282.213C281.549 324.369 280.95 324.768 280.696 325.382C279.865 327.403 278.173 332.126 278.4 336.606C278.461 337.83 279.48 338.788 280.706 338.788H308.206C309.471 338.788 310.432 337.634 310.179 336.394C309.875 334.91 308.83 332.958 305.814 331.204C300.932 328.363 294.796 325.524 292.861 324.644C292.461 324.462 292.026 324.367 291.585 324.367V324.369Z" fill="white"/>
<path d="M308.205 339.214H280.704C279.247 339.214 278.049 338.079 277.974 336.629C277.739 332.011 279.524 327.112 280.301 325.222C280.621 324.447 281.37 323.946 282.209 323.946H291.581C292.086 323.946 292.574 324.052 293.033 324.26C294.834 325.078 301.092 327.971 306.024 330.839C309.257 332.722 310.293 334.852 310.589 336.31C310.734 337.02 310.555 337.751 310.093 338.315C309.627 338.885 308.938 339.212 308.203 339.212L308.205 339.214ZM282.211 324.793C281.716 324.793 281.274 325.088 281.087 325.544C280.33 327.382 278.596 332.138 278.821 336.585C278.871 337.584 279.699 338.365 280.704 338.365H308.205C308.686 338.365 309.134 338.152 309.438 337.78C309.737 337.414 309.854 336.941 309.76 336.481C309.496 335.193 308.561 333.295 305.596 331.572C300.701 328.724 294.472 325.846 292.68 325.032C292.332 324.874 291.962 324.793 291.579 324.793H282.207H282.211Z" fill="black"/>
<path d="M291.809 330.607C291.7 330.607 291.59 330.564 291.507 330.48C291.343 330.312 291.345 330.044 291.513 329.881L295.457 326C295.622 325.837 295.892 325.839 296.056 326.006C296.219 326.174 296.217 326.441 296.05 326.605L292.106 330.485C292.023 330.566 291.915 330.607 291.809 330.607Z" fill="black"/>
<path d="M294.35 332.196C294.241 332.196 294.131 332.153 294.048 332.069C293.884 331.901 293.886 331.634 294.054 331.47L297.998 327.589C298.163 327.426 298.433 327.428 298.597 327.595C298.76 327.763 298.758 328.03 298.591 328.194L294.647 332.074C294.564 332.155 294.456 332.196 294.35 332.196Z" fill="black"/>
<path d="M302.379 101.004C302.585 101.073 302.802 101.161 303.035 101.275C303.035 101.275 303.555 101.593 304.03 102.463C304.506 103.333 305.297 106.026 306.327 105.866C307.357 105.708 308.623 101.512 308.623 101.512C308.623 101.512 309.02 99.4541 312.186 100.245C315.352 101.036 317.807 102.382 318.758 102.936C319.708 103.491 320.579 103.648 321.527 103.569C322.478 103.491 325.566 101.67 325.012 98.74C324.457 95.8103 321.764 93.82 319.391 93.8315C316.919 93.845 313.374 92.2473 312.74 91.9317C312.107 91.616 308.381 90.0876 306.35 91.2194C304.538 92.23 303.016 93.8315 302.188 96.6033C301.661 98.3723 302.067 99.995 302.123 100.528C302.144 100.738 302.182 100.936 302.383 101.004H302.379Z" fill="black"/>
<path d="M319.153 103.231C319.213 103.264 319.248 103.327 319.244 103.395C319.211 103.878 319.103 105.878 319.406 107.681C319.573 108.676 320.212 111.096 319.943 111.595C319.673 112.093 318.676 112.132 318.216 112.093C317.756 112.055 316.988 112.247 316.795 112.63C316.603 113.013 316.027 116.582 315.798 117.427C315.567 118.272 314.801 119.269 313.381 119.115C313.2 119.096 312.668 118.976 312.257 118.88C311.958 118.811 311.66 119.009 311.612 119.313C310.93 123.646 315.309 128.53 316.362 129.642C316.47 129.758 316.432 129.946 316.287 130.01C306.576 134.248 296.586 126.932 293.857 124.659C293.735 124.557 298.957 123.144 301.454 117.14C302.551 114.499 302.184 110.391 302.224 108.759C302.232 108.43 302.047 108.126 301.749 107.989C301.092 107.687 300.137 106.682 299.862 105.693C299.466 104.268 299.624 99.7238 303.389 101.545C303.389 101.545 303.908 101.862 304.384 102.732C304.859 103.602 305.65 106.295 306.68 106.136C307.71 105.978 308.976 101.781 308.976 101.781C308.976 101.781 309.373 99.7238 312.539 100.515C315.396 101.229 318.564 102.911 319.155 103.233L319.153 103.231Z" fill="white"/>
<path d="M309.957 131.744C302.421 131.744 295.811 126.834 293.59 124.984C293.476 124.89 293.419 124.74 293.44 124.593C293.476 124.341 293.642 124.268 293.973 124.122C297.317 122.657 299.703 120.253 301.066 116.975C301.909 114.946 301.852 111.978 301.815 110.012C301.805 109.51 301.798 109.077 301.805 108.744C301.809 108.582 301.719 108.436 301.576 108.368C300.799 108.01 299.763 106.892 299.459 105.801C299.168 104.755 299.151 102.245 300.423 101.183C300.96 100.734 301.942 100.367 303.58 101.158C303.68 101.216 304.246 101.581 304.762 102.525C304.885 102.752 305.02 103.067 305.174 103.435C305.47 104.138 306.165 105.783 306.621 105.712C307.024 105.637 307.953 103.712 308.571 101.668C308.608 101.516 308.81 100.811 309.551 100.34C310.31 99.8566 311.351 99.7758 312.646 100.099C315.547 100.825 318.748 102.523 319.36 102.856C319.564 102.967 319.686 103.189 319.67 103.42C319.643 103.807 319.528 105.828 319.828 107.608C319.87 107.856 319.942 108.193 320.021 108.567C320.417 110.445 320.556 111.356 320.321 111.793C319.88 112.611 318.465 112.536 318.186 112.513C317.795 112.48 317.256 112.667 317.181 112.817C317.091 113.023 316.841 114.357 316.66 115.331C316.485 116.266 316.319 117.15 316.215 117.535C315.911 118.651 314.898 119.702 313.343 119.533C313.282 119.527 313.097 119.506 312.169 119.288C312.13 119.279 312.1 119.294 312.084 119.304C312.067 119.315 312.046 119.336 312.038 119.375C311.405 123.398 315.43 128.025 316.679 129.348C316.823 129.502 316.885 129.717 316.843 129.925C316.8 130.133 316.66 130.308 316.465 130.395C314.275 131.352 312.08 131.74 309.959 131.74L309.957 131.744ZM294.647 124.751C297.915 127.35 306.949 133.436 315.871 129.731C314.381 128.11 310.537 123.46 311.199 119.248C311.241 118.988 311.389 118.753 311.609 118.605C311.828 118.457 312.104 118.407 312.36 118.466C313.174 118.657 313.387 118.688 313.432 118.694C314.575 118.817 315.201 118.028 315.395 117.315C315.491 116.963 315.661 116.056 315.824 115.179C316.146 113.462 316.3 112.686 316.421 112.442C316.723 111.837 317.69 111.623 318.255 111.672C318.85 111.722 319.468 111.591 319.574 111.394C319.686 111.086 319.353 109.506 319.191 108.746C319.11 108.359 319.035 108.009 318.993 107.752C318.71 106.072 318.773 104.249 318.816 103.527C317.971 103.075 315.068 101.581 312.44 100.925C311.395 100.663 310.552 100.709 310.005 101.058C309.501 101.379 309.397 101.855 309.397 101.86C309.395 101.874 309.391 101.889 309.386 101.903C308.981 103.241 307.915 106.374 306.748 106.553C305.647 106.723 304.947 105.085 304.391 103.766C304.252 103.435 304.119 103.121 304.015 102.933C303.649 102.263 303.261 101.966 303.184 101.91C302.21 101.445 301.463 101.42 300.966 101.835C300.044 102.605 300.027 104.678 300.275 105.575C300.523 106.471 301.407 107.358 301.931 107.6C302.381 107.808 302.666 108.266 302.652 108.767C302.645 109.088 302.652 109.51 302.662 109.997C302.702 112.032 302.762 115.107 301.85 117.3C300.445 120.678 298.023 123.18 294.647 124.747V124.751Z" fill="black"/>
<path d="M311.999 119.235C311.96 119.235 311.918 119.229 311.879 119.217C310.576 118.832 308.48 117.933 306.996 116.959C306.8 116.831 306.746 116.569 306.875 116.372C307.004 116.176 307.267 116.122 307.462 116.251C308.875 117.181 310.875 118.037 312.12 118.405C312.345 118.471 312.472 118.707 312.407 118.932C312.353 119.117 312.184 119.237 312.001 119.237L311.999 119.235Z" fill="black"/>
<path d="M83.1237 327.596C83.1237 327.596 81.9861 335.679 84.6039 339.095L85.395 340.541L72.1846 338.986L72.9179 337.577C74.223 335.068 74.8775 332.339 74.8294 329.611L83.1217 327.594L83.1237 327.596Z" fill="white"/>
<path d="M85.3937 340.964C85.3764 340.964 85.361 340.964 85.3436 340.96L72.1332 339.405C71.9946 339.389 71.8733 339.305 71.8079 339.182C71.7424 339.058 71.7424 338.912 71.8079 338.787L72.5413 337.378C73.8078 334.943 74.4527 332.26 74.4065 329.617C74.4026 329.419 74.5374 329.243 74.7298 329.197L83.0222 327.18C83.1589 327.147 83.3033 327.184 83.4072 327.278C83.5112 327.372 83.5612 327.513 83.5419 327.652C83.5304 327.73 82.4582 335.599 84.9375 338.833C84.951 338.851 84.9625 338.868 84.9721 338.887L85.7633 340.333C85.8383 340.471 85.8306 340.643 85.7421 340.773C85.6632 340.891 85.5304 340.96 85.3898 340.96L85.3937 340.964ZM72.8435 338.637L84.6276 340.023L84.2465 339.324C81.9751 336.319 82.4178 330.133 82.6296 328.15L75.2573 329.944C75.2476 332.618 74.572 335.316 73.2958 337.771L72.8454 338.635L72.8435 338.637Z" fill="black"/>
<path d="M84.8389 334.622L86.1574 336.166C88.7676 339.222 92.0803 341.598 95.8126 343.087L98.6807 344.233C98.954 344.342 99.1542 344.579 99.2177 344.866L99.2505 345.012C99.6085 346.635 97.674 350.279 91.755 351.413C88.0939 352.115 79.5609 352.431 69.359 348.279C68.7141 348.017 68.3138 347.366 68.3754 346.673C68.5967 344.146 69.359 338.125 71.7093 335.186C71.971 334.859 72.4523 334.82 72.7506 335.113L75.6245 337.935C76.9141 339.201 78.9872 339.178 80.248 337.884L83.4684 334.578C83.8495 334.187 84.4847 334.206 84.8389 334.622Z" fill="white"/>
<path d="M86.5825 352.254C82.4728 352.254 76.3575 351.584 69.2008 348.672C68.3789 348.337 67.8765 347.519 67.9554 346.637C68.1767 344.127 68.9506 337.96 71.3798 334.921C71.5819 334.669 71.8821 334.513 72.2017 334.491C72.5154 334.474 72.8253 334.588 73.0505 334.809L75.9225 337.631C76.4653 338.164 77.1813 338.449 77.9436 338.445C78.7039 338.437 79.4142 338.131 79.9455 337.587L83.1658 334.28C83.4295 334.008 83.7952 333.858 84.1783 333.872C84.5575 333.883 84.9155 334.056 85.1619 334.345L86.4804 335.889C89.0348 338.88 92.3167 341.234 95.9701 342.693L98.8382 343.839C99.2424 344 99.5388 344.351 99.6332 344.774L99.6659 344.92C99.843 345.721 99.5677 346.751 98.9094 347.748C98.1433 348.913 96.2049 350.99 91.8355 351.829C91.1598 351.958 89.3158 352.254 86.5825 352.254ZM72.2671 335.338C72.2671 335.338 72.2556 335.338 72.2517 335.338C72.169 335.344 72.0939 335.383 72.0419 335.45C69.7571 338.308 69.0141 344.278 68.7985 346.711C68.7542 347.219 69.0429 347.692 69.5203 347.885C81.2159 352.645 90.0299 351.311 91.6757 350.995C95.7391 350.216 97.5081 348.335 98.201 347.282C98.817 346.345 98.9344 345.542 98.8363 345.103L98.8035 344.957C98.7708 344.807 98.6649 344.684 98.5225 344.626L95.6544 343.481C91.874 341.97 88.4785 339.537 85.8337 336.439L84.5151 334.896C84.4227 334.786 84.2919 334.724 84.1475 334.719C84.0031 334.713 83.8703 334.769 83.7702 334.871L80.5499 338.178C79.8608 338.886 78.9368 339.281 77.9494 339.292C76.9581 339.306 76.0303 338.928 75.3258 338.235L72.4538 335.413C72.3884 335.35 72.3133 335.336 72.2671 335.336V335.338Z" fill="black"/>
<path d="M83.7572 346.96H83.7457C79.3589 346.923 75.1049 345.992 71.1031 344.192L68.8625 343.183C68.6488 343.087 68.5545 342.837 68.6488 342.623C68.7451 342.409 68.9953 342.315 69.209 342.409L71.4495 343.418C75.3436 345.17 79.4821 346.074 83.7515 346.111H83.7553C83.9035 346.111 84.0383 346.042 84.1268 345.922C84.2154 345.801 84.2404 345.651 84.1923 345.508L83.815 344.354C83.6668 343.899 83.7977 343.418 84.1538 343.1C84.5118 342.783 85.0026 342.71 85.4377 342.912L86.5579 343.43C89.7686 344.916 93.4991 345.023 96.7906 343.726L97.4374 343.472C97.6549 343.385 97.9013 343.493 97.9879 343.711C98.0745 343.928 97.9667 344.175 97.7492 344.261L97.1024 344.515C93.5972 345.899 89.6223 345.784 86.2018 344.2L85.0816 343.682C84.8948 343.595 84.7543 343.701 84.7178 343.736C84.6793 343.77 84.558 343.897 84.6215 344.092L84.9988 345.247C85.1316 345.651 85.0623 346.082 84.8101 346.425C84.5618 346.765 84.1769 346.96 83.7553 346.96H83.7572Z" fill="black"/>
<path d="M24.8696 311.828C24.8696 311.828 19.3086 318.003 19.2836 322.384L19.0353 324.057L9.46094 313.682L10.9643 313.22C13.405 311.848 15.917 311.124 17.4684 308.795L24.8677 311.828H24.8696Z" fill="white"/>
<path d="M19.0352 324.481C18.9178 324.481 18.8062 324.433 18.7234 324.344L9.14902 313.969C9.05085 313.861 9.01235 313.711 9.05085 313.571C9.08935 313.43 9.19714 313.319 9.33573 313.276L10.7967 312.828C11.3973 312.491 12.0036 312.192 12.5888 311.904C14.3501 311.036 16.0131 310.216 17.1161 308.558C17.2277 308.391 17.4433 308.325 17.63 308.4L25.0293 311.434C25.1563 311.486 25.2507 311.598 25.2815 311.732C25.3123 311.867 25.2757 312.008 25.1833 312.11C25.1294 312.169 19.7301 318.217 19.707 322.383C19.707 322.402 19.707 322.423 19.7031 322.442L19.4548 324.115C19.4317 324.277 19.3162 324.41 19.1603 324.458C19.1199 324.471 19.0776 324.477 19.0352 324.477V324.481ZM10.2289 313.89L18.7446 323.118L18.8581 322.35C18.9005 318.512 22.8696 313.519 24.1592 311.996L17.6204 309.315C16.402 310.968 14.7293 311.794 12.9622 312.666C12.3751 312.957 11.7669 313.255 11.1721 313.59C11.1451 313.605 11.1182 313.617 11.0893 313.627L10.2289 313.89Z" fill="black"/>
<path d="M21.2642 320.371L20.9235 322.406C20.2498 326.436 20.5655 330.571 21.8455 334.452L22.8291 337.433C22.9234 337.718 22.8695 338.03 22.6867 338.267L22.5943 338.388C21.5645 339.728 17.4625 340.604 12.7081 336.735C9.76686 334.342 3.94025 327.901 0.504334 317.241C0.286822 316.568 0.531282 315.832 1.11067 315.426C3.22419 313.946 8.41175 310.602 12.2384 310.51C12.6638 310.5 13.0103 310.849 12.9776 311.274L12.658 315.357C12.5137 317.189 13.888 318.789 15.7205 318.926L20.4018 319.272C20.9562 319.312 21.3547 319.821 21.2642 320.369V320.371Z" fill="white"/>
<path d="M19.4416 339.95C17.8805 339.95 15.3782 339.457 12.4389 337.064C11.0818 335.962 4.11377 329.825 0.100388 317.373C-0.176795 316.516 0.133111 315.594 0.868416 315.08C2.96846 313.612 8.27728 310.184 12.2291 310.089C12.5601 310.081 12.872 310.212 13.0953 310.447C13.3147 310.678 13.4244 310.992 13.3994 311.31L13.0799 315.392C13.0183 316.166 13.2647 316.915 13.769 317.504C14.2733 318.093 14.9778 318.447 15.7516 318.505L20.4329 318.851C20.816 318.88 21.1701 319.069 21.4088 319.371C21.6456 319.673 21.7457 320.064 21.6822 320.441L21.3415 322.476C20.6812 326.424 20.995 330.52 22.2481 334.32L23.2317 337.301C23.3703 337.719 23.2914 338.177 23.0238 338.525L22.9314 338.647C22.4252 339.305 21.4435 339.763 20.2404 339.904C20.0133 339.931 19.7477 339.948 19.4454 339.948L19.4416 339.95ZM12.256 310.934C12.256 310.934 12.2502 310.934 12.2483 310.934C8.52752 311.023 3.39001 314.347 1.35349 315.773C0.926162 316.074 0.745223 316.611 0.906913 317.111C4.84715 329.336 11.6497 335.328 12.974 336.406C16.2386 339.063 18.8641 339.211 20.1384 339.063C21.2741 338.93 21.9767 338.495 22.2558 338.131L22.3482 338.01C22.4444 337.884 22.4733 337.719 22.4232 337.567L21.4396 334.585C20.1442 330.655 19.8189 326.418 20.5022 322.335L20.8429 320.301C20.8679 320.154 20.8294 320.01 20.739 319.893C20.6485 319.777 20.5157 319.706 20.3694 319.694L15.6881 319.348C14.6871 319.275 13.7786 318.815 13.1241 318.054C12.4716 317.294 12.154 316.324 12.2329 315.325L12.5524 311.242C12.5601 311.134 12.5082 311.063 12.4774 311.029C12.4196 310.967 12.3407 310.934 12.256 310.934Z" fill="black"/>
<path d="M22.3957 336.77C22.3283 336.77 22.259 336.752 22.1936 336.718L21.5719 336.381C18.2033 334.554 15.6971 331.388 14.6943 327.69L14.3651 326.477C14.3093 326.273 14.1322 326.231 14.0783 326.223C14.0244 326.216 13.8435 326.204 13.7318 326.385L13.0793 327.434C12.8522 327.8 12.4749 328.027 12.0437 328.054C11.6145 328.083 11.2102 327.908 10.935 327.577C8.09577 324.135 6.04 320.214 4.8254 315.921L4.14592 313.517C4.08239 313.292 4.21329 313.057 4.4385 312.994C4.66563 312.93 4.89854 313.061 4.96206 313.286L5.64155 315.69C6.82342 319.869 8.8253 323.686 11.5894 327.036C11.6876 327.155 11.832 327.218 11.9879 327.207C12.1419 327.197 12.2785 327.115 12.3594 326.984L13.0119 325.935C13.2679 325.525 13.7241 325.313 14.2015 325.384C14.6808 325.455 15.0561 325.788 15.1832 326.254L15.5123 327.467C16.4555 330.941 18.8097 333.919 21.9761 335.636L22.5978 335.973C22.8038 336.085 22.8808 336.342 22.7691 336.548C22.6921 336.691 22.5459 336.77 22.3957 336.77Z" fill="black"/>
<path d="M61.7129 212.353C62.4367 213.461 63.4082 214.391 64.5566 215.06L64.8408 215.218C66.883 216.302 68.9937 217.246 71.2432 217.908L71.6953 218.037L72.2422 218.185V218.219L72.6377 218.303C78.3232 219.511 84.2575 219.302 88.7549 218.796C91.0062 218.543 92.9044 218.215 94.2412 217.95C94.9098 217.817 95.4385 217.7 95.8008 217.616C95.8282 217.609 95.8544 217.602 95.8799 217.596C95.9388 217.821 96.0189 218.124 96.1143 218.499C96.3412 219.392 96.6635 220.694 97.0459 222.328C97.8108 225.595 98.814 230.187 99.7686 235.487C101.679 246.095 103.387 259.501 102.606 270.781C101.827 282.043 97.0785 296.749 92.5029 308.676C90.2182 314.632 87.9821 319.881 86.3174 323.64C85.4851 325.519 84.7955 327.026 84.3145 328.063C84.0741 328.581 83.886 328.982 83.7578 329.252C83.718 329.337 83.6832 329.408 83.6553 329.467C80.6436 330.41 77.9003 330.31 75.8926 329.963C74.8669 329.786 74.0355 329.547 73.4639 329.352C73.185 329.257 72.9685 329.172 72.8213 329.112C68.3847 306.804 72.8871 286.37 74.6465 279.546C75.7212 275.38 76.6011 268.707 75.4287 261.039L75.1602 259.28L74.4736 260.921C71.7261 267.491 66.1392 280.344 61.6025 287.591C56.2006 296.221 46.5599 303.352 38.2188 308.339C34.056 310.828 30.2324 312.773 27.4502 314.096C26.0595 314.758 24.9299 315.264 24.1484 315.604C23.7577 315.774 23.4534 315.902 23.248 315.988C23.2079 316.005 23.1712 316.019 23.1387 316.033C19.8401 314.453 17.4908 311.399 16.8086 307.807C21.9839 294.257 31.4535 282.667 39.7207 271.821C43.8581 266.392 47.6958 261.146 50.5039 255.955C53.3129 250.761 55.1111 245.59 55.1367 240.309C55.1807 231.235 56.9379 224.056 58.6807 219.152C59.5521 216.7 60.4196 214.816 61.0674 213.548C61.3194 213.055 61.5402 212.657 61.7129 212.353Z" fill="#BF92FB" stroke="black"/>
<path d="M78.7538 331.142C74.9771 331.142 72.3516 329.924 72.1976 329.851C72.0763 329.793 71.9897 329.683 71.9647 329.552C67.5413 307.63 71.7395 287.118 73.751 279.319C74.5286 276.303 75.6335 270.28 74.7231 262.709C71.7164 269.82 66.6193 281.317 62.3846 288.083C51.5032 305.465 23.5616 316.86 23.2806 316.973C23.1709 317.018 23.0496 317.014 22.9437 316.964L22.8456 316.918C19.1844 315.206 16.5782 311.811 15.8717 307.834C15.8583 307.759 15.866 307.682 15.8929 307.609C20.6012 295.205 28.6914 284.67 36.5142 274.482C45.5861 262.669 54.1557 251.512 54.2096 240.302C54.2981 222.109 61.2893 211.242 61.3586 211.134C61.4414 211.009 61.5819 210.934 61.7359 210.943C61.886 210.951 62.0208 211.038 62.09 211.172C62.8061 212.558 63.9071 213.675 65.2719 214.4C67.6972 215.688 69.8165 216.56 71.9397 217.143L72.854 217.393C72.8732 217.399 72.8925 217.405 72.9098 217.413C83.8874 219.717 96.0084 216.614 96.1297 216.583C96.3549 216.523 96.5859 216.658 96.6455 216.881C96.7302 217.193 105.084 248.347 103.525 270.844C101.966 293.349 84.5669 329.699 84.3917 330.063C84.3417 330.167 84.2512 330.245 84.1415 330.282C82.2031 330.917 80.3707 331.141 78.7518 331.141L78.7538 331.142ZM72.752 329.166C73.726 329.566 78.3168 331.229 83.7065 329.533C84.9827 326.85 101.186 292.358 102.68 270.788C104.133 249.812 96.8996 221.212 95.9333 217.505C93.6928 218.031 82.6978 220.362 72.6538 218.227C72.6172 218.219 72.5826 218.208 72.5499 218.19L71.7145 217.961C69.5297 217.361 67.3565 216.468 64.8754 215.149C63.5761 214.458 62.4924 213.449 61.707 212.208C60.2807 214.706 55.1335 224.791 55.0585 240.307C55.0026 251.803 46.3484 263.069 37.1879 274.999C29.4248 285.107 21.3981 295.559 16.7283 307.799C17.4116 311.43 19.7966 314.529 23.1343 316.117C25.4865 315.139 51.3723 304.075 61.6666 287.632C66.167 280.443 71.6663 267.831 74.544 260.952C74.6172 260.776 74.7962 260.671 74.9868 260.694C75.1754 260.717 75.3255 260.863 75.3544 261.05C76.646 269.485 75.4199 276.247 74.5748 279.529C72.5845 287.247 68.4383 307.499 72.7558 329.166H72.752Z" fill="#BF92FB"/>
<path d="M130.307 159.742C131.342 160.195 132.543 159.715 132.988 158.672L139.321 143.804L135.567 142.166L129.234 157.034C128.79 158.077 129.269 159.29 130.307 159.742Z" fill="black"/>
<path d="M131.118 160.337C130.785 160.337 130.452 160.268 130.136 160.131C128.889 159.586 128.31 158.123 128.845 156.868L135.18 142.001C135.224 141.897 135.309 141.814 135.413 141.773C135.517 141.731 135.636 141.733 135.738 141.779L139.491 143.417C139.705 143.51 139.803 143.758 139.711 143.972L133.378 158.839C133.118 159.45 132.637 159.919 132.023 160.164C131.73 160.279 131.424 160.337 131.118 160.337ZM135.79 142.724L129.624 157.199C129.272 158.027 129.653 158.993 130.475 159.353C130.872 159.527 131.309 159.534 131.709 159.375C132.111 159.215 132.427 158.907 132.596 158.506L138.766 144.024L135.79 142.724Z" fill="white"/>
<path d="M112.884 116.523C117.467 136.536 137.255 149.08 157.082 144.539C176.908 139.999 189.264 120.093 184.679 100.08C180.095 80.0675 160.308 67.523 140.481 72.0638C120.655 76.6046 108.299 96.5098 112.884 116.523ZM117.616 115.439C113.637 98.0632 124.364 80.7816 141.577 76.8394C158.789 72.8973 175.968 83.7883 179.949 101.162C183.928 118.538 173.201 135.82 155.988 139.762C138.776 143.704 121.596 132.813 117.616 115.439Z" fill="black"/>
<path d="M148.926 145.889C131.912 145.889 116.459 134.039 112.469 116.617C107.84 96.4076 120.363 76.2348 140.386 71.6497C160.408 67.0647 180.462 79.7746 185.091 99.984C187.333 109.774 185.665 119.841 180.392 128.334C175.12 136.828 166.874 142.73 157.174 144.951C154.412 145.584 151.65 145.887 148.928 145.887L148.926 145.889ZM148.632 71.5631C145.972 71.5631 143.273 71.8595 140.574 72.4774C121.008 76.9585 108.771 96.6751 113.295 116.428C117.195 133.458 132.299 145.04 148.926 145.04C151.587 145.04 154.285 144.743 156.984 144.125C166.462 141.954 174.518 136.189 179.671 127.887C184.823 119.585 186.454 109.743 184.263 100.173C180.363 83.1432 165.259 71.5612 148.632 71.5612V71.5631ZM148.907 140.992C134.111 140.992 120.671 130.686 117.2 115.535C113.176 97.959 124.066 80.4156 141.479 76.4273C158.891 72.4389 176.333 83.4935 180.358 101.07C184.383 118.646 173.492 136.189 156.079 140.177C153.677 140.728 151.275 140.992 148.907 140.992ZM118.026 115.346C121.947 132.466 138.934 143.234 155.891 139.352C172.847 135.467 183.453 118.38 179.532 101.26C175.611 84.1403 158.626 73.3706 141.668 77.255C124.711 81.1394 114.105 98.2266 118.026 115.346Z" fill="white"/>
<path d="M130.831 166.362C131.299 166.523 132.787 164.579 133.135 164.236C134.506 162.889 137.69 161.301 138.334 158.485C139.17 154.832 137.58 150.911 136.648 151.032C135.718 151.153 134.537 158.086 130.891 158.339C130.891 158.339 130.071 158.242 130.159 154.818C130.173 154.339 129.657 154.006 129.234 154.227C128.648 154.531 127.903 155.184 127.291 156.575C126.51 158.352 126.66 160.402 126.783 161.63C126.866 162.442 126.57 164.881 127.191 165.097L130.831 166.362Z" fill="white"/>
<path d="M130.892 166.797C130.823 166.797 130.758 166.785 130.692 166.762L127.052 165.497C126.367 165.259 126.336 164.202 126.367 162.616C126.375 162.237 126.382 161.877 126.361 161.673C126.207 160.142 126.13 158.162 126.902 156.404C127.581 154.858 128.438 154.162 129.037 153.85C129.368 153.679 129.757 153.694 130.078 153.896C130.405 154.1 130.594 154.448 130.582 154.83C130.523 157.095 130.875 157.746 130.996 157.902C133.089 157.638 134.334 154.706 135.164 152.751C135.73 151.417 136.041 150.681 136.592 150.61C136.9 150.57 137.206 150.714 137.498 151.038C138.469 152.104 139.47 155.403 138.746 158.577C138.238 160.797 136.322 162.258 134.782 163.43C134.265 163.825 133.776 164.198 133.431 164.537C133.356 164.612 133.223 164.766 133.06 164.958C132.003 166.188 131.391 166.795 130.89 166.795L130.892 166.797ZM127.366 164.708L130.9 165.936C131.237 165.784 132.09 164.791 132.419 164.406C132.604 164.19 132.754 164.017 132.84 163.932C133.223 163.555 133.733 163.166 134.272 162.756C135.703 161.667 137.483 160.31 137.922 158.389C138.692 155.022 137.293 151.773 136.729 151.471C136.538 151.686 136.213 152.454 135.945 153.082C135.015 155.268 133.612 158.574 130.921 158.76C130.894 158.762 130.867 158.76 130.842 158.76C130.392 158.708 129.651 158.123 129.737 154.808C129.739 154.697 129.664 154.637 129.631 154.616C129.593 154.593 129.516 154.558 129.431 154.604C128.954 154.853 128.261 155.426 127.682 156.749C126.9 158.527 127.116 160.674 127.208 161.59C127.233 161.846 127.227 162.212 127.218 162.635C127.206 163.228 127.183 164.45 127.368 164.71L127.366 164.708Z" fill="black"/>
<path d="M133.198 165.623L125.868 162.93C122.989 168.075 119.897 172.495 116.454 175.265C114.429 176.891 112.234 178.217 109.932 179.249C108.897 179.713 107.684 179.234 107.268 178.177C106.125 175.268 104.225 170.685 100.858 165.282C98.329 161.223 94.1289 157.893 90.6411 156.164C85.2244 153.477 78.9243 152.18 72.9245 153.377C61.3444 155.687 53.4235 162.437 53.4235 162.437C47.1214 167.467 35.4836 185.008 39.6336 193.455C44.723 203.813 58.4416 197.753 58.4416 197.753C58.4416 197.753 58.7227 202.536 55.8604 209.148C52.384 217.181 55.8007 219.26 55.8007 219.26C69.9159 234.168 101.205 220.091 98.5581 213.699C95.7266 206.856 95.6785 198.18 95.6785 198.18C99.5918 202.051 104.933 201.443 104.933 201.443C104.933 201.443 108.023 201.21 110.154 200.334C128.684 194.186 133.196 165.627 133.196 165.627L133.198 165.623Z" fill="white"/>
<path d="M73.0425 226.29C66.6191 226.29 60.2112 224.508 55.5222 219.582C55.0545 219.255 52.0824 216.793 55.4683 208.976C57.6781 203.869 57.9861 199.839 58.0168 198.37C55.2854 199.392 43.8439 202.986 39.2493 193.637C34.9125 184.809 47.0643 166.964 53.1546 162.101C53.2239 162.042 61.2814 155.262 72.8365 152.956C78.4918 151.828 84.8805 152.831 90.8245 155.78C94.0487 157.38 98.4702 160.656 101.213 165.054C104.445 170.24 106.354 174.707 107.658 178.018C107.814 178.415 108.116 178.721 108.51 178.883C108.913 179.046 109.353 179.038 109.754 178.859C112.064 177.826 114.227 176.505 116.183 174.933C119.215 172.498 122.26 168.504 125.494 162.723C125.596 162.54 125.815 162.461 126.009 162.533L133.339 165.226C133.53 165.295 133.644 165.489 133.613 165.689C133.601 165.761 132.437 172.973 129.01 180.84C124.454 191.3 117.979 198.179 110.285 200.732C108.145 201.613 105.092 201.852 104.963 201.862C104.765 201.885 100.027 202.378 96.1295 199.159C96.2392 201.612 96.732 208.183 98.9456 213.534C99.729 215.428 98.0621 217.888 94.3702 220.281C89.7177 223.297 81.3657 226.29 73.0386 226.292L73.0425 226.29ZM58.4384 197.323C58.5154 197.323 58.5924 197.344 58.6598 197.385C58.7791 197.458 58.8542 197.583 58.8619 197.721C58.8734 197.922 59.116 202.682 56.2479 209.311C52.9871 216.843 55.9938 218.876 56.0246 218.895C56.0535 218.914 56.0843 218.937 56.1074 218.962C66.519 229.959 85.868 224.781 93.914 219.567C97.1805 217.449 98.7704 215.315 98.166 213.856C95.3345 207.015 95.2556 198.264 95.2556 198.176C95.2556 198.004 95.3576 197.848 95.5155 197.783C95.6733 197.718 95.8562 197.752 95.9774 197.872C99.704 201.558 104.836 201.021 104.888 201.015C104.934 201.011 107.952 200.774 109.994 199.935C127.005 194.289 132.129 169.135 132.722 165.895L126.061 163.449C122.839 169.156 119.781 173.131 116.72 175.591C114.708 177.208 112.481 178.567 110.104 179.631C109.49 179.907 108.813 179.918 108.195 179.666C107.584 179.418 107.115 178.942 106.874 178.328C105.585 175.05 103.696 170.631 100.499 165.503C97.8523 161.254 93.5733 158.088 90.453 156.54C84.6745 153.674 78.4803 152.696 73.0078 153.788C61.6664 156.052 53.7763 162.689 53.6993 162.756C47.5493 167.666 36.0232 185.136 40.0154 193.263C44.8699 203.142 58.1381 197.419 58.2709 197.361C58.3248 197.336 58.3845 197.325 58.4422 197.325L58.4384 197.323Z" fill="black"/>
<path d="M58.6139 192.829C58.4387 192.829 58.2732 192.719 58.2135 192.544C54.3252 181.293 56.1327 172.194 56.1519 172.104C56.2001 171.874 56.4253 171.728 56.6524 171.774C56.8815 171.823 57.0297 172.046 56.9816 172.275C56.9642 172.363 55.2068 181.247 59.0142 192.267C59.0912 192.488 58.9738 192.729 58.7525 192.806C58.7063 192.821 58.6601 192.829 58.6139 192.829Z" fill="black"/>
<path d="M95.4381 198.661C95.3322 198.661 95.2244 198.62 95.1416 198.54C89.0571 192.597 84.8281 178.817 84.651 178.234C84.5837 178.011 84.7088 177.774 84.934 177.705C85.1592 177.637 85.394 177.762 85.4633 177.988C85.5057 178.128 89.8059 192.143 95.7345 197.933C95.902 198.097 95.9058 198.364 95.7422 198.532C95.6594 198.617 95.5497 198.659 95.4381 198.659V198.661Z" fill="black"/>
<path d="M79.5394 127.504C81.8801 127.516 84.0359 128.781 85.212 130.806C85.7568 131.743 86.2515 132.617 86.3516 132.863C86.5787 133.425 87.0811 135.314 88.9213 137.135C89.1022 137.314 89.1292 137.598 88.9713 137.801L87.7933 139.308C87.7125 139.412 87.6778 139.544 87.7009 139.673C87.8414 140.478 88.544 143.394 88.3361 143.922C87.8953 145.038 85.2274 145.34 84.4382 145.406C84.29 145.417 84.1572 145.502 84.086 145.631C83.83 146.093 83.1543 147.419 82.5981 150.724C81.753 155.762 86.5537 156.545 85.5758 157.04C78.7541 160.483 66.1904 159.7 66.918 158.268C67.5166 157.09 74.4115 154.041 75.0525 145.754C75.4529 140.588 68.2173 140.162 73.4298 130.326C74.6425 128.039 77.2642 127.493 79.5413 127.502L79.5394 127.504Z" fill="white"/>
<path d="M72.7417 159.909C69.7119 159.909 67.3058 159.53 66.6783 158.901C66.4415 158.662 66.3838 158.354 66.5262 158.075C66.7072 157.719 67.1884 157.342 67.9179 156.77C70.0911 155.068 74.1372 151.9 74.6146 145.721C74.7493 143.985 73.962 142.853 73.0496 141.542C71.4385 139.225 69.6099 136.599 73.04 130.129C74.1045 128.12 76.3527 127.061 79.5288 127.08C82.0023 127.092 84.316 128.437 85.5652 130.591C86.5893 132.357 86.6951 132.618 86.7298 132.703C86.7606 132.78 86.7971 132.88 86.8395 133.001C87.109 133.752 87.6691 135.315 89.2032 136.834C89.5401 137.167 89.5767 137.694 89.2879 138.062L88.1099 139.569C88.133 139.781 88.1927 140.07 88.2639 140.412C88.7085 142.541 88.8876 143.633 88.7124 144.079C88.2158 145.336 85.8328 145.715 84.4546 145.831C83.7173 147.142 83.2573 149.255 82.9974 150.797C82.4604 153.99 84.3506 155.311 85.367 156.021C85.8328 156.346 86.1388 156.56 86.1119 156.93C86.1023 157.074 86.0291 157.276 85.7481 157.419C82.2332 159.193 76.8975 159.909 72.7359 159.909H72.7417ZM67.3481 158.367C68.5416 159.255 78.8859 159.726 85.0397 156.824C84.9877 156.787 84.9358 156.751 84.8857 156.716C83.8001 155.958 81.5422 154.377 82.1659 150.656C82.5586 148.316 83.0744 146.556 83.7 145.427C83.8405 145.174 84.0985 145.009 84.3891 144.984C86.2813 144.826 87.7038 144.337 87.929 143.767C88.0291 143.407 87.6152 141.43 87.44 140.585C87.3669 140.231 87.3034 139.935 87.2726 139.748C87.2302 139.502 87.2938 139.246 87.4497 139.047L88.6277 137.54C88.6527 137.508 88.6393 137.463 88.6142 137.438C86.9434 135.785 86.339 134.101 86.0484 133.29C86.0099 133.182 85.9771 133.094 85.9502 133.024C85.9059 132.915 85.7038 132.511 84.8376 131.021C83.7366 129.125 81.7039 127.941 79.5288 127.931C76.6569 127.914 74.7147 128.792 73.7946 130.53C70.607 136.543 72.2046 138.841 73.7503 141.063C74.6704 142.385 75.6232 143.754 75.4654 145.792C74.9591 152.343 70.7225 155.661 68.4453 157.444C67.9776 157.811 67.531 158.16 67.352 158.371L67.3481 158.367Z" fill="black"/>
<path d="M83.5179 135.469L86.2474 132.053C87.6487 130.299 87.1578 127.718 85.2195 126.588C84.6824 126.274 84.0511 125.947 83.3466 125.645C76.3362 122.627 68.3056 127.608 68.2979 135.238C68.294 138.363 70.3825 141.983 74.8213 145.202C74.8213 145.202 77.9396 142.742 77.9011 140.081C77.9011 140.081 75.6374 137.396 78.827 136.037C79.4371 135.777 80.134 135.799 80.7287 136.091C81.6893 136.565 82.85 136.305 83.5179 135.469Z" fill="black"/>
<path d="M79.3457 141.729C78.4006 141.729 77.1995 141.327 76.3082 139.643C76.1985 139.435 76.2774 139.179 76.4853 139.069C76.6932 138.959 76.9492 139.038 77.0589 139.246C78.3313 141.652 80.2465 140.753 80.4621 140.644C80.67 140.538 80.926 140.617 81.0338 140.824C81.1416 141.032 81.0627 141.286 80.8567 141.394C80.8432 141.402 80.2003 141.729 79.3476 141.729H79.3457Z" fill="black"/>
<path d="M71.9448 127.995C71.9448 127.995 69.5772 119.807 60.9422 121.349C55.5506 122.311 50.8423 125.934 48.2553 131.847C43.2506 143.29 47.7818 154.177 39.626 164.11C37.7839 166.352 39.2853 169.763 42.1861 169.863C47.6663 170.052 55.0636 168.728 60.1992 161.671C64.407 155.889 61.7622 129.306 71.0209 129.706L71.9467 127.995H71.9448Z" fill="black"/>
<path d="M18.7915 269.371C16.1698 269.371 14.0352 267.239 14.0352 264.615C14.0352 261.991 16.1679 259.859 18.7915 259.859C21.4152 259.859 23.5479 261.991 23.5479 264.615C23.5479 267.239 21.4152 269.371 18.7915 269.371ZM18.7915 260.708C16.6376 260.708 14.884 262.461 14.884 264.615C14.884 266.769 16.6376 268.523 18.7915 268.523C20.9455 268.523 22.699 266.769 22.699 264.615C22.699 262.461 20.9455 260.708 18.7915 260.708Z" fill="black"/>
<path d="M83.6519 29.6552C81.0302 29.6552 78.8955 27.5225 78.8955 24.8988C78.8955 22.2752 81.0283 20.1425 83.6519 20.1425C86.2755 20.1425 88.4083 22.2752 88.4083 24.8988C88.4083 27.5225 86.2755 29.6552 83.6519 29.6552ZM83.6519 20.9913C81.498 20.9913 79.7444 22.7449 79.7444 24.8988C79.7444 27.0528 81.498 28.8063 83.6519 28.8063C85.8058 28.8063 87.5594 27.0528 87.5594 24.8988C87.5594 22.7449 85.8058 20.9913 83.6519 20.9913Z" fill="black"/>
<path d="M23.9912 278.653C22.228 278.653 20.7939 277.219 20.7939 275.456C20.7939 273.693 22.228 272.258 23.9912 272.258C25.7544 272.258 27.1884 273.693 27.1884 275.456C27.1884 277.219 25.7544 278.653 23.9912 278.653ZM23.9912 273.107C22.6957 273.107 21.6428 274.16 21.6428 275.456C21.6428 276.751 22.6957 277.804 23.9912 277.804C25.2866 277.804 26.3395 276.751 26.3395 275.456C26.3395 274.16 25.2866 273.107 23.9912 273.107Z" fill="black"/>
<path d="M339.367 107.572C337.604 107.572 336.17 106.138 336.17 104.374C336.17 102.611 337.604 101.177 339.367 101.177C341.13 101.177 342.564 102.611 342.564 104.374C342.564 106.138 341.13 107.572 339.367 107.572ZM339.367 102.026C338.072 102.026 337.019 103.079 337.019 104.374C337.019 105.67 338.072 106.723 339.367 106.723C340.663 106.723 341.715 105.67 341.715 104.374C341.715 103.079 340.663 102.026 339.367 102.026Z" fill="black"/>
<path d="M335.244 97.5124C333.109 97.5124 331.371 95.7762 331.371 93.6396C331.371 91.503 333.107 89.7667 335.244 89.7667C337.381 89.7667 339.117 91.503 339.117 93.6396C339.117 95.7762 337.381 97.5124 335.244 97.5124ZM335.244 90.6156C333.577 90.6156 332.22 91.9726 332.22 93.6396C332.22 95.3065 333.577 96.6636 335.244 96.6636C336.911 96.6636 338.268 95.3065 338.268 93.6396C338.268 91.9726 336.911 90.6156 335.244 90.6156Z" fill="black"/>
<path d="M11.652 246.34C11.4172 246.34 11.2285 246.15 11.2285 245.917V242.625C11.2285 242.39 11.4191 242.202 11.652 242.202C11.8849 242.202 12.0755 242.392 12.0755 242.625V245.917C12.0755 246.151 11.8849 246.34 11.652 246.34Z" fill="black"/>
<path d="M11.652 254.01C11.4172 254.01 11.2285 253.819 11.2285 253.586V250.295C11.2285 250.06 11.4191 249.871 11.652 249.871C11.8849 249.871 12.0755 250.062 12.0755 250.295V253.586C12.0755 253.821 11.8849 254.01 11.652 254.01Z" fill="black"/>
<path d="M9.46014 248.529H6.16859C5.93376 248.529 5.74512 248.338 5.74512 248.105C5.74512 247.872 5.93568 247.682 6.16859 247.682H9.46014C9.69497 247.682 9.88361 247.872 9.88361 248.105C9.88361 248.338 9.69305 248.529 9.46014 248.529Z" fill="black"/>
<path d="M17.133 248.529H13.8414C13.6066 248.529 13.418 248.338 13.418 248.105C13.418 247.872 13.6085 247.682 13.8414 247.682H17.133C17.3678 247.682 17.5565 247.872 17.5565 248.105C17.5565 248.338 17.3659 248.529 17.133 248.529Z" fill="black"/>
<path d="M67.4577 29.9145C67.2228 29.9145 67.0342 29.7239 67.0342 29.491V26.1995C67.0342 25.9646 67.2247 25.776 67.4577 25.776C67.6906 25.776 67.8811 25.9666 67.8811 26.1995V29.491C67.8811 29.7259 67.6906 29.9145 67.4577 29.9145Z" fill="black"/>
<path d="M67.4577 37.5828C67.2228 37.5828 67.0342 37.3923 67.0342 37.1594V33.8678C67.0342 33.633 67.2247 33.4443 67.4577 33.4443C67.6906 33.4443 67.8811 33.6349 67.8811 33.8678V37.1594C67.8811 37.3942 67.6906 37.5828 67.4577 37.5828Z" fill="black"/>
<path d="M65.2697 32.1027H61.9782C61.7433 32.1027 61.5547 31.9121 61.5547 31.6792C61.5547 31.4463 61.7453 31.2557 61.9782 31.2557H65.2697C65.5045 31.2557 65.6932 31.4463 65.6932 31.6792C65.6932 31.9121 65.5026 32.1027 65.2697 32.1027Z" fill="black"/>
<path d="M72.9387 32.1027H69.6471C69.4123 32.1027 69.2236 31.9121 69.2236 31.6792C69.2236 31.4463 69.4142 31.2557 69.6471 31.2557H72.9387C73.1735 31.2557 73.3621 31.4463 73.3621 31.6792C73.3621 31.9121 73.1716 32.1027 72.9387 32.1027Z" fill="black"/>
<path d="M22.0651 210.31C21.8899 210.31 21.7244 210.2 21.6647 210.025C9.28578 174.272 10.741 146.697 14.1403 129.858C17.8303 111.585 24.5559 101.631 24.6232 101.533C24.7561 101.341 25.0198 101.291 25.2122 101.423C25.4047 101.556 25.4548 101.82 25.322 102.012C25.2546 102.111 18.6099 111.954 14.9603 130.075C11.5918 146.802 10.1578 174.201 22.4654 209.746C22.5424 209.967 22.425 210.208 22.2037 210.285C22.1575 210.3 22.1113 210.308 22.0651 210.308V210.31Z" fill="black"/>
<path d="M9.66627 196.748C9.47571 196.748 9.30247 196.619 9.25434 196.425C0.309419 159.748 4.14378 132.744 8.93674 116.548C14.1378 98.9697 21.5755 89.9439 21.6506 89.8554C21.8007 89.6764 22.0683 89.6514 22.2473 89.8015C22.4263 89.9516 22.4513 90.2192 22.3012 90.3982C22.228 90.4868 14.8827 99.4105 9.73556 116.838C4.98303 132.927 1.18524 159.759 10.0801 196.222C10.1359 196.45 9.99542 196.679 9.76829 196.734C9.73364 196.742 9.70092 196.746 9.66819 196.746L9.66627 196.748Z" fill="black"/>
<path d="M282.651 87.4718H321.012C322.26 87.4718 323.393 86.4613 323.544 85.2139L329.919 32.424C330.069 31.1767 329.388 29.5771 327.384 29.5771L289.571 30.1662L282.651 87.4718Z" fill="black"/>
<path d="M321.018 87.8958H282.657C282.536 87.8958 282.421 87.8438 282.34 87.7533C282.259 87.6629 282.22 87.5416 282.236 87.4223L289.156 30.1166C289.181 29.9068 289.358 29.747 289.57 29.7432L327.382 29.1542C328.573 29.1542 329.266 29.6566 329.642 30.08C330.188 30.696 330.45 31.593 330.344 32.4765L323.969 85.2664C323.794 86.7178 322.47 87.8977 321.016 87.8977L321.018 87.8958ZM283.135 87.0488H321.018C322.056 87.0488 323.003 86.2038 323.128 85.1644L329.503 32.3745C329.582 31.7277 329.397 31.0791 329.008 30.6421C328.633 30.2167 328.088 30.003 327.39 30.003L289.953 30.5863L283.135 87.0508V87.0488Z" fill="black"/>
<path d="M246.49 87.4719H282.62L289.54 30.1663H253.41C252.163 30.1663 251.029 31.1768 250.879 32.4241L244.504 85.214C244.354 86.4613 245.243 87.4719 246.49 87.4719Z" fill="black"/>
<path d="M282.621 87.8961H246.491C245.767 87.8961 245.118 87.6132 244.662 87.0973C244.202 86.5776 243.996 85.8904 244.085 85.1628L250.46 32.3729C250.635 30.9215 251.959 29.7416 253.411 29.7416H289.541C289.662 29.7416 289.777 29.7936 289.858 29.884C289.939 29.9745 289.978 30.0958 289.962 30.2151L283.042 87.5208C283.017 87.7344 282.836 87.8942 282.621 87.8942V87.8961ZM253.411 30.5905C252.373 30.5905 251.426 31.4355 251.301 32.4749L244.926 85.2648C244.866 85.7479 244.999 86.2003 245.295 86.5352C245.588 86.8663 246.013 87.0492 246.491 87.0492H282.245L289.063 30.5905H253.411Z" fill="black"/>
<path d="M282.107 86.8829H320.468C321.716 86.8829 322.849 85.8723 323 84.625L329.375 31.8352C329.525 30.5878 328.636 29.5773 327.388 29.5773H289.027L282.107 86.8829Z" fill="white"/>
<path d="M320.47 87.3069H282.109C281.988 87.3069 281.873 87.2549 281.792 87.1645C281.711 87.074 281.673 86.9527 281.688 86.8334L288.608 29.5277C288.633 29.3141 288.814 29.1543 289.029 29.1543H327.39C328.114 29.1543 328.763 29.4373 329.219 29.9531C329.679 30.4728 329.885 31.16 329.796 31.8876L323.421 84.6775C323.246 86.1289 321.922 87.3088 320.468 87.3088L320.47 87.3069ZM282.587 86.46H320.47C321.508 86.46 322.455 85.6149 322.58 84.5755L328.955 31.7856C329.015 31.3005 328.882 30.8501 328.586 30.5152C328.293 30.1841 327.868 30.0032 327.39 30.0032H289.405L282.587 86.4619V86.46Z" fill="black"/>
<path d="M245.103 86.8831H281.937L288.992 29.5775H252.157C250.885 29.5775 249.73 30.5881 249.576 31.8354L243.076 84.6253C242.922 85.8726 243.828 86.8831 245.101 86.8831H245.103Z" fill="white"/>
<path d="M281.935 87.3074H245.101C244.358 87.3074 243.694 87.0186 243.228 86.4931C242.77 85.9753 242.568 85.2939 242.656 84.574L249.156 31.7841C249.335 30.3328 250.681 29.1528 252.157 29.1528H288.992C289.113 29.1528 289.229 29.2048 289.309 29.2953C289.39 29.3857 289.427 29.507 289.413 29.6283L282.359 86.9339C282.332 87.1457 282.153 87.3054 281.937 87.3054L281.935 87.3074ZM252.155 30.0017C251.093 30.0017 250.125 30.8487 249.996 31.8881L243.495 84.678C243.438 85.1534 243.567 85.6 243.861 85.933C244.163 86.2737 244.602 86.4604 245.099 86.4604H281.558L288.509 30.0017H252.153H252.155Z" fill="black"/>
<path d="M320.651 85.6816H282.273C282.111 85.6816 281.965 85.5912 281.894 85.4468C281.823 85.3024 281.838 85.1311 281.936 85.0022L287.42 77.7473C287.497 77.6453 287.616 77.5837 287.744 77.5798L316.563 76.5365C316.626 76.5327 316.692 76.5462 316.75 76.5731L320.952 78.4402C321.107 78.5095 321.206 78.6655 321.204 78.8368L321.079 85.2659C321.075 85.4969 320.886 85.6816 320.655 85.6816H320.651ZM283.126 84.8347H320.236L320.347 79.1024L316.492 77.3893L287.973 78.421L283.124 84.8347H283.126Z" fill="black"/>
<path d="M326.803 23.5089L327.546 28.1306L320.647 85.2591L319.883 80.8146L326.803 23.5089Z" fill="white"/>
<path d="M326.803 23.5089L327.546 28.1306L320.647 85.2591L319.883 80.8146L326.803 23.5089Z" fill="black"/>
<path d="M282.286 85.2591C285.05 82.4372 288.781 80.8146 292.501 80.8146H319.883L326.803 23.5089H299.421C295.703 23.5089 291.972 25.1316 289.206 27.9535L282.286 85.2591Z" fill="white"/>
<path d="M282.29 85.6818C282.229 85.6818 282.165 85.6684 282.107 85.6395C281.944 85.5606 281.847 85.3873 281.871 85.2064L288.791 27.9007C288.802 27.8083 288.844 27.7217 288.91 27.6544C291.757 24.7497 295.591 23.0828 299.427 23.0828H326.809C326.93 23.0828 327.046 23.1347 327.126 23.2252C327.207 23.3157 327.246 23.4369 327.23 23.5563L320.31 80.8619C320.285 81.0756 320.105 81.2354 319.889 81.2354H292.507C288.896 81.2354 285.283 82.808 282.594 85.5529C282.514 85.6356 282.404 85.6799 282.292 85.6799L282.29 85.6818ZM289.614 28.1471L282.852 84.1439C285.586 81.7455 289.045 80.3903 292.506 80.3903H319.51L326.328 23.9316H299.426C295.861 23.9316 292.292 25.4658 289.614 28.1471Z" fill="black"/>
<path d="M286.358 79.2705C286.267 79.2705 286.177 79.2416 286.102 79.1839C285.982 79.0934 285.919 78.9452 285.938 78.7951L291.924 29.2255C291.938 29.1177 291.992 29.0176 292.076 28.9483C294.092 27.2891 296.563 26.3748 299.031 26.3748H323.121C323.242 26.3748 323.358 26.4267 323.439 26.5172C323.519 26.6077 323.558 26.7289 323.542 26.8483L317.417 77.5708C317.392 77.7845 317.212 77.9443 316.996 77.9443H292.906C290.748 77.9443 288.6 78.3793 286.521 79.2359C286.469 79.257 286.415 79.2686 286.36 79.2686L286.358 79.2705ZM292.744 29.4988L286.864 78.1945C288.837 77.4669 290.868 77.0992 292.904 77.0992H316.619L322.642 27.2236H299.031C296.812 27.2236 294.586 28.0302 292.746 29.4988H292.744Z" fill="black"/>
<path d="M282.448 84.3563C282.431 84.3563 282.414 84.3563 282.396 84.3524C282.163 84.3236 281.998 84.1138 282.027 83.8808L288.787 27.8995C288.798 27.8071 288.841 27.7205 288.906 27.6531C291.753 24.7485 295.587 23.0815 299.424 23.0815H326.805C326.926 23.0815 327.042 23.1335 327.123 23.224C327.204 23.3145 327.242 23.4357 327.227 23.5551L320.307 80.8607C320.282 81.0744 320.101 81.2341 319.885 81.2341H315.98C315.745 81.2341 315.556 81.0436 315.556 80.8107C315.556 80.5778 315.745 80.3872 315.98 80.3872H319.51L326.328 23.9285H299.426C295.861 23.9285 292.292 25.4626 289.615 28.144L282.872 83.9809C282.845 84.1965 282.662 84.3544 282.45 84.3544L282.448 84.3563Z" fill="black"/>
<path d="M282.269 85.6823H246.511C246.305 85.6823 246.128 85.5341 246.093 85.33L245.329 80.8855C245.315 80.8085 245.323 80.7295 245.352 80.6583L262.855 36.3341C262.918 36.1724 263.074 36.0665 263.249 36.0665C263.425 36.0665 263.58 36.1743 263.644 36.336L282.664 85.1029C282.714 85.2338 282.698 85.3801 282.619 85.4956C282.541 85.611 282.41 85.6803 282.269 85.6803V85.6823ZM246.869 84.8353H281.649L263.247 37.6526L246.185 80.8604L246.869 84.8353Z" fill="black"/>
<path d="M282.271 85.2587C280.188 82.4369 276.848 80.8142 273.129 80.8142H245.748L252.668 23.5085H280.049C283.768 23.5085 287.108 25.1312 289.191 27.9531L282.271 85.2587Z" fill="white"/>
<path d="M282.263 85.6818C282.13 85.6818 282.003 85.6202 281.922 85.5104C279.917 82.7964 276.71 81.2391 273.122 81.2391H245.74C245.619 81.2391 245.504 81.1872 245.423 81.0967C245.342 81.0062 245.303 80.885 245.319 80.7656L252.239 23.46C252.264 23.2463 252.445 23.0865 252.66 23.0865H280.042C283.901 23.0865 287.358 24.7689 289.524 27.7024C289.587 27.789 289.616 27.8968 289.604 28.0046L282.685 85.3103C282.663 85.4835 282.54 85.6259 282.371 85.6702C282.336 85.6798 282.3 85.6837 282.263 85.6837V85.6818ZM246.22 80.3903H273.122C276.619 80.3903 279.786 81.7723 281.963 84.215L288.742 28.0701C286.731 25.4388 283.57 23.9316 280.042 23.9316H253.036L246.218 80.3903H246.22Z" fill="black"/>
<path d="M279.753 79.2705C279.694 79.2705 279.634 79.2571 279.576 79.232C277.713 78.3793 275.677 77.9462 273.526 77.9462H249.437C249.315 77.9462 249.2 77.8942 249.119 77.8038C249.038 77.7133 249 77.592 249.015 77.4727L255.14 26.7501C255.167 26.5365 255.346 26.3767 255.562 26.3767H279.651C282.138 26.3767 284.408 27.3026 286.042 28.983C286.131 29.0754 286.175 29.2024 286.159 29.3295L280.173 78.899C280.156 79.0338 280.077 79.1512 279.959 79.2186C279.896 79.2551 279.823 79.2725 279.752 79.2725L279.753 79.2705ZM249.916 77.0993H273.526C275.598 77.0993 277.571 77.4804 279.401 78.2311L285.295 29.4315C283.832 28.0071 281.836 27.2237 279.653 27.2237H255.941L249.918 77.0993H249.916Z" fill="black"/>
<path d="M282.901 80.4865C282.883 80.4865 282.866 80.4865 282.849 80.4826C282.616 80.4537 282.45 80.2439 282.479 80.011L288.752 28.0681C286.741 25.4348 283.58 23.9296 280.052 23.9296H253.048L246.361 79.8994C246.334 80.1323 246.124 80.2978 245.889 80.2709C245.656 80.2439 245.491 80.0322 245.518 79.7993L252.251 23.4561C252.276 23.2424 252.457 23.0826 252.672 23.0826H280.054C283.913 23.0826 287.37 24.765 289.536 27.6985C289.599 27.7851 289.628 27.8929 289.617 28.0007L283.324 80.113C283.297 80.3286 283.114 80.4865 282.903 80.4865H282.901Z" fill="black"/>
<path d="M296.723 45.61H316.884C317.29 45.61 317.619 45.2808 317.619 44.8747V44.6995C317.619 44.2934 317.29 43.9642 316.884 43.9642H296.723C296.317 43.9642 295.987 44.2934 295.987 44.6995V44.8747C295.987 45.2808 296.317 45.61 296.723 45.61Z" fill="black"/>
<path d="M292.614 41.8489H312.775C313.182 41.8489 313.511 41.5197 313.511 41.1136V40.9384C313.511 40.5323 313.182 40.2031 312.775 40.2031H292.614C292.208 40.2031 291.879 40.5323 291.879 40.9384V41.1136C291.879 41.5197 292.208 41.8489 292.614 41.8489Z" fill="black"/>
<path d="M291.905 49.2537H312.066C312.473 49.2537 312.802 48.9245 312.802 48.5184V48.3432C312.802 47.9371 312.473 47.6079 312.066 47.6079H291.905C291.499 47.6079 291.17 47.9371 291.17 48.3432V48.5184C291.17 48.9245 291.499 49.2537 291.905 49.2537Z" fill="black"/>
<path d="M295.894 52.7815H316.055C316.461 52.7815 316.79 52.4523 316.79 52.0462V51.871C316.79 51.4649 316.461 51.1357 316.055 51.1357H295.894C295.487 51.1357 295.158 51.4649 295.158 51.871V52.0462C295.158 52.4523 295.487 52.7815 295.894 52.7815Z" fill="black"/>
<path d="M260.763 36.0879H279.236C279.642 36.0879 279.972 35.7587 279.972 35.3526V35.1774C279.972 34.7713 279.642 34.4421 279.236 34.4421H260.763C260.357 34.4421 260.028 34.7713 260.028 35.1774V35.3526C260.028 35.7587 260.357 36.0879 260.763 36.0879Z" fill="black"/>
<path d="M257.975 39.7345H276.1C276.506 39.7345 276.835 39.4053 276.835 38.9992V38.824C276.835 38.4179 276.506 38.0887 276.1 38.0887H257.975C257.569 38.0887 257.24 38.4179 257.24 38.824V38.9992C257.24 39.4053 257.569 39.7345 257.975 39.7345Z" fill="black"/>
<path d="M256.096 43.2583H278.373C278.779 43.2583 279.108 42.9291 279.108 42.523V42.3478C279.108 41.9417 278.779 41.6125 278.373 41.6125H256.096C255.69 41.6125 255.361 41.9417 255.361 42.3478V42.523C255.361 42.9291 255.69 43.2583 256.096 43.2583Z" fill="black"/>
</svg>
